<?xml version="1.0" encoding="UTF-8"?>
<svg version="1.1" xmlns="http://www.w3.org/2000/svg" width="444" height="324">
<path d="M0 0 C146.52 0 293.04 0 444 0 C444 106.92 444 213.84 444 324 C297.48 324 150.96 324 0 324 C0 217.08 0 110.16 0 0 Z " fill="#FEFEFE" transform="translate(0,0)"/>
<path d="M0 0 C0.82838379 0.00410889 1.65676758 0.00821777 2.51025391 0.01245117 C25.09683751 0.21493356 25.09683751 0.21493356 33.9375 8.125 C34.38351563 8.90488281 34.82953125 9.68476562 35.2890625 10.48828125 C37.11342792 13.40640129 39.07012336 15.21435556 41.6875 17.4375 C45.57009449 20.82983945 48.95901291 24.3252154 52.265625 28.26953125 C54.51184955 30.76242064 57.0194823 32.82686739 59.65234375 34.8984375 C60.07644531 35.30320313 60.50054687 35.70796875 60.9375 36.125 C60.9375 36.785 60.9375 37.445 60.9375 38.125 C64.5928458 36.9065514 66.3521951 34.83688143 68.9375 32.125 C70.2435651 30.80218609 71.55239309 29.482097 72.86328125 28.1640625 C73.93545898 27.08511719 73.93545898 27.08511719 75.02929688 25.984375 C75.76212891 25.24703125 76.49496094 24.5096875 77.25 23.75 C77.97123047 23.02039063 78.69246094 22.29078125 79.43554688 21.5390625 C92.33289179 8.58388196 101.50059022 -0.07442356 120.38476562 -0.19726562 C121.49529297 -0.19404297 122.60582031 -0.19082031 123.75 -0.1875 C125.39838867 -0.21166992 125.39838867 -0.21166992 127.08007812 -0.23632812 C136.86122538 -0.24209191 147.38987956 0.35498356 154.66796875 7.59765625 C157.89775875 11.48334206 158.56086379 15.64155202 158.4453125 20.59375 C156.33724194 31.10167097 146.83105289 39.15102632 138.5 45 C133.92181144 48.23350203 130.43015354 51.69253154 126.83203125 55.96484375 C123.83876796 59.37778107 120.40840081 62.21348709 116.9375 65.125 C115.53833602 66.32947511 114.14247057 67.53779298 112.75 68.75 C112.09386719 69.32105469 111.43773437 69.89210938 110.76171875 70.48046875 C109.12610125 71.95497618 107.58728646 73.47511234 106.0625 75.0625 C103.9375 77.125 103.9375 77.125 101.9375 77.125 C105.98747305 81.95381402 110.03042616 86.17800583 114.9375 90.125 C116.62566933 91.76988294 118.29103315 93.43837542 119.9375 95.125 C120.50726563 95.68445313 121.07703125 96.24390625 121.6640625 96.8203125 C124.34970982 99.46024667 126.81805091 101.96339241 129.0625 105 C131.36211553 107.60623093 132.51847108 107.86362398 135.9375 108.125 C137.86053428 107.15731419 137.86053428 107.15731419 139.5078125 105.4375 C140.19520508 104.7878125 140.88259766 104.138125 141.59082031 103.46875 C142.36522461 102.6953125 143.13962891 101.921875 143.9375 101.125 C145.28859863 99.77921875 145.28859863 99.77921875 146.66699219 98.40625 C150.25803239 94.80179409 153.82411573 91.17265521 157.36865234 87.52246094 C175.22796509 69.16220938 175.22796509 69.16220938 186.3984375 68.86328125 C193.04289728 69.54817172 196.70914183 73.56193037 200.7734375 78.5390625 C202.87750254 81.4056746 203.06157325 83.22575583 203.05775452 86.73135376 C203.05981651 88.18691933 203.05981651 88.18691933 203.06192017 89.67189026 C203.05832489 90.74003464 203.05472961 91.80817902 203.05102539 92.90869141 C203.05117142 94.03064407 203.05131744 95.15259674 203.0514679 96.30854797 C203.05076909 100.03123889 203.04297815 103.75388028 203.03515625 107.4765625 C203.03329196 110.05203219 203.03186811 112.62750224 203.03086853 115.20297241 C203.0274355 121.29800322 203.01954739 127.39301347 203.00951904 133.48803651 C202.99835056 140.42627972 202.9928456 147.36452376 202.98782361 154.30277371 C202.97736458 168.57685876 202.95976971 182.85092874 202.9375 197.125 C203.79915771 197.10405273 204.66081543 197.08310547 205.54858398 197.06152344 C208.7858475 196.99281666 212.02273591 196.94294374 215.26049805 196.90527344 C216.65417814 196.88532005 218.0477763 196.85814681 219.44116211 196.82324219 C227.69698459 196.62180841 234.69850511 196.73531537 241.9375 201.125 C242.79601562 201.63160156 243.65453125 202.13820313 244.5390625 202.66015625 C250.97483982 207.51804994 256.61882027 213.61206798 258.54296875 221.65625 C258.80297329 225.87253979 258.33701134 227.61451329 255.6875 231 C254.78 231.70125 253.8725 232.4025 252.9375 233.125 C252.35500488 233.65327393 251.77250977 234.18154785 251.17236328 234.72583008 C248.1635962 236.60951417 245.96999487 236.55742172 242.4296875 236.63671875 C241.77173187 236.65489655 241.11377625 236.67307434 240.43588257 236.69180298 C238.22813033 236.74772085 236.02072906 236.78111606 233.8125 236.8125 C232.24706201 236.84291868 230.68163243 236.87377306 229.11621094 236.9050293 C224.71341967 236.9858692 220.31059443 237.04007435 215.90734863 237.0892334 C212.76199439 237.12711366 209.61688176 237.1747787 206.47167969 237.22363281 C200.82872765 237.30847671 195.18597086 237.36725287 189.5425415 237.40908813 C187.31473626 237.4279541 185.08697498 237.45311107 182.85931396 237.48471069 C179.70286499 237.52667108 176.54731904 237.54199406 173.390625 237.55078125 C172.45237885 237.56823395 171.51413269 237.58568665 170.54745483 237.60366821 C164.4104824 237.58377538 160.07088035 236.5301769 154.9375 233.125 C153.96208252 232.48925049 152.98666504 231.85350098 151.98168945 231.19848633 C148.6269425 226.15454636 149.21173425 220.87006533 149.23046875 214.94921875 C149.20778679 213.02877495 149.20778679 213.02877495 149.18464661 211.0695343 C149.14486615 207.6779393 149.13461088 204.28688133 149.13061523 200.89508057 C149.12127033 197.42923768 149.08384856 193.9637086 149.04882812 190.49804688 C148.98589426 183.70702432 148.95102533 176.91629098 148.9375 170.125 C148.32261719 170.61871094 147.70773437 171.11242187 147.07421875 171.62109375 C145.86185547 172.58208984 145.86185547 172.58208984 144.625 173.5625 C143.42423828 174.51962891 143.42423828 174.51962891 142.19921875 175.49609375 C137.74047319 178.70731465 133.22447178 178.60241886 127.9375 178.125 C123.59839133 176.77838007 120.59765241 174.96252076 117.2265625 172.0078125 C116.6073291 171.46785645 115.9880957 170.92790039 115.35009766 170.37158203 C114.88394043 169.96020996 114.4177832 169.54883789 113.9375 169.125 C113.96368408 170.26453125 113.98986816 171.4040625 114.0168457 172.578125 C114.10783112 176.83459586 114.16492358 181.09098201 114.2121582 185.34814453 C114.23719289 187.18520599 114.27123145 189.02216893 114.31469727 190.85888672 C114.37584037 193.51033927 114.40381957 196.16046734 114.42578125 198.8125 C114.45158768 199.62428711 114.4773941 200.43607422 114.50398254 201.27246094 C114.50694085 207.38407986 112.76686673 211.37168429 108.9375 216.125 C104.05053792 220.54653712 100.42528229 222.84685022 93.80859375 222.68359375 C81.8518723 220.35732005 69.08073424 206.52332935 61.9375 197.125 C61.02475915 194.34685194 60.81132026 191.82115413 60.80810547 188.90844727 C60.80499359 188.08046127 60.80188171 187.25247528 60.79867554 186.3993988 C60.80065948 185.50576126 60.80264343 184.61212372 60.8046875 183.69140625 C60.80336823 182.75325577 60.80204895 181.81510529 60.8006897 180.848526 C60.79877257 177.79481713 60.80510793 174.74119955 60.8125 171.6875 C60.81382935 170.13890289 60.81382935 170.13890289 60.81518555 168.559021 C60.83220994 151.72877491 61.13872733 134.93746529 61.9375 118.125 C55.70881432 122.65427428 55.70881432 122.65427428 50.125 127.9375 C47.16363335 130.99104927 44.08554242 133.67307078 40.75 136.3125 C35.66757677 140.38549751 31.12946866 144.82066134 26.57250977 149.45654297 C23.11896558 152.96436378 19.60163288 156.31535349 15.84375 159.5 C12.83350533 162.06611021 9.9330364 164.75498556 7.015625 167.42578125 C0.98434526 172.35737276 -5.53882794 171.82487647 -13.0625 171.125 C-18.03690933 168.89509237 -20.53035929 165.91798062 -23.0625 161.125 C-25.49543554 153.75883198 -25.36297106 146.23830683 -25.3125 138.5625 C-25.32023437 137.38236328 -25.32796875 136.20222656 -25.3359375 134.98632812 C-25.31311713 124.79132673 -24.65035294 117.99304348 -17.453125 110.39453125 C-14.15385465 107.2623808 -10.62737101 104.47062705 -7.0625 101.6484375 C-3.63817393 98.76807989 -0.5094656 95.68847681 2.625 92.5 C14.83744939 80.08895965 14.83744939 80.08895965 20.9375 77.125 C15.25803168 70.36679754 9.07641521 64.14635924 2.8125 57.9375 C1.82658623 56.95661806 0.84090779 55.97549951 -0.14453125 54.99414062 C-1.95705441 53.18969432 -3.77115782 51.38689548 -5.58642578 49.58520508 C-7.29130355 47.89125386 -8.99242674 46.1935182 -10.69042969 44.49267578 C-12.46847322 42.71792628 -14.25668084 40.96058684 -16.0703125 39.22265625 C-17.10944385 38.21100822 -18.14850566 37.19928875 -19.1875 36.1875 C-19.71214844 35.68798828 -20.23679687 35.18847656 -20.77734375 34.67382812 C-26.07040723 29.48126585 -28.50766319 24.7500797 -28.75 17.1875 C-28.68008644 13.29290334 -28.63685338 10.95733717 -26.41015625 7.73046875 C-24.37084953 5.92661271 -22.41912473 4.48392959 -20.0625 3.125 C-19.45921875 2.75890625 -18.8559375 2.3928125 -18.234375 2.015625 C-12.49601529 -0.33751531 -6.10497 -0.03662734 0 0 Z " fill="#FE6602" transform="translate(122.0625,58.875)"/>
<path d="M0 0 C1.32 0 2.64 0 4 0 C4.33 0.99 4.66 1.98 5 3 C3.44233138 4.44273385 1.87864043 5.87896708 0.3125 7.3125 C-0.55761719 8.11300781 -1.42773438 8.91351563 -2.32421875 9.73828125 C-4.78170312 11.81548337 -7.19503316 13.43831576 -10 15 C-9.52570343 10.73133091 -6.96478822 8.89066852 -4 6 C-3.67 5.01 -3.34 4.02 -3 3 C-2.01 3 -1.02 3 0 3 C0 2.01 0 1.02 0 0 Z " fill="#FA6A13" transform="translate(166,185)"/>
<path d="M0 0 C0 0.66 0 1.32 0 2 C2.64 2.33 5.28 2.66 8 3 C8 3.33 8 3.66 8 4 C6.39667209 4.08121924 4.79215974 4.13929134 3.1875 4.1875 C2.29417969 4.22230469 1.40085938 4.25710938 0.48046875 4.29296875 C-2.41647515 3.95081002 -3.22555028 3.24606427 -5 1 C-3 0 -3 0 0 0 Z " fill="#F57A38" transform="translate(215,277)"/>
</svg>
