<?xml version="1.0" encoding="UTF-8"?>
<svg version="1.1" xmlns="http://www.w3.org/2000/svg" width="512" height="512">
<path d="M0 0 C1.04982056 0.02030273 1.04982056 0.02030273 2.12084961 0.04101562 C10.11472331 0.36162802 14.38676183 2.55521697 19.8125 8.25 C25.6254859 15.45650992 26.92910772 22.33011079 26 31.5 C23.9189597 43.6953437 10.54542064 53.09821323 2.13597107 61.48428345 C0.95654716 62.66414431 -0.22265662 63.84422527 -1.40166134 65.02450502 C-4.61713729 68.24220161 -7.83569683 71.45679775 -11.05479968 74.6708653 C-14.53502172 78.14674786 -18.01233164 81.62554166 -21.49000549 85.10397339 C-27.50744118 91.1219321 -33.52669747 97.13806476 -39.5472126 103.15294266 C-48.25174482 111.84932984 -56.95349734 120.5484941 -65.65458523 129.2483273 C-79.77338193 143.3649382 -93.89440793 157.4793169 -108.0168457 171.59228516 C-121.73123697 185.2974901 -135.44457211 199.00375038 -149.15649414 212.71142578 C-150.00243637 213.55710529 -150.84837861 214.4027848 -151.71995545 215.27409096 C-155.9640132 219.51684362 -160.20805026 223.75961699 -164.45207703 228.00240064 C-199.63151072 263.1714764 -234.8145666 298.33692681 -270 333.5 C-268.05204658 337.54921799 -265.50062163 340.71852238 -262.65625 344.18359375 C-257.96415675 350.74588454 -258.32384981 357.70693568 -259 365.5 C-260.67872015 372.75674594 -264.96898166 377.34028828 -271 381.5 C-274.73788536 383.62191068 -277.62067997 384.5 -282 384.5 C-281.67 385.49 -281.34 386.48 -281 387.5 C-280.50430919 395.07369453 -281.17810461 402.14735076 -283 409.5 C-281.98421875 409.46519531 -280.9684375 409.43039062 -279.921875 409.39453125 C-264.03454757 409.01072319 -250.14569306 412.15175126 -237.6875 422.6875 C-229.78651034 430.2714355 -224.11738072 439.67637058 -222 450.5 C-222 453.8 -222 457.1 -222 460.5 C-203.19 460.5 -184.38 460.5 -165 460.5 C-165.83402344 456.148125 -166.66804688 451.79625 -167.52734375 447.3125 C-171.02700719 429.04334185 -174.51763727 410.77246378 -178 392.5 C-178.12926376 391.82183228 -178.25852753 391.14366455 -178.39170837 390.44494629 C-179.84395226 382.82495235 -181.29175527 375.20414406 -182.73025513 367.58154297 C-183.11723354 365.53345175 -183.50547054 363.48559793 -183.89498901 361.43798828 C-184.42959243 358.62597373 -184.95960582 355.81313415 -185.48828125 353 C-185.64388519 352.186521 -185.79948914 351.37304199 -185.95980835 350.53491211 C-186.59943424 347.10536934 -187 344.00320967 -187 340.5 C-187.680625 340.438125 -188.36125 340.37625 -189.0625 340.3125 C-195.79680199 338.44982073 -199.59402636 334.25718693 -203.0546875 328.3671875 C-206.29627371 321.96438499 -205.92872068 313.74199446 -204.421875 306.859375 C-201.63454886 299.61232703 -195.75749298 294.26823199 -188.8125 291 C-185.81343304 290.46683254 -183.03997991 290.35523905 -180 290.5 C-179.98582031 289.89414062 -179.97164063 289.28828125 -179.95703125 288.6640625 C-179.3944829 278.7814563 -175.33127701 270.23035266 -168 263.5 C-164.48175005 260.84897399 -161.27588303 258.80175126 -156.9609375 257.78125 C-152.84889832 256.00189795 -152.32947024 253.88332868 -150.625 249.8125 C-146.48335649 240.69160327 -141.27349294 236.03040175 -132.078125 232.2265625 C-127.47666694 230.61778205 -124.03788725 230.56860488 -119.125 230.875 C-114.33773593 231.06384547 -114.33773593 231.06384547 -110.13671875 229.19140625 C-109.23158553 227.99257199 -108.36546982 226.76353707 -107.53515625 225.51171875 C-102.47026025 218.87451406 -93.09582309 214.77171415 -85 213.5 C-71.28794554 212.2770743 -59.44848623 214.5476406 -48.5078125 223.17578125 C-40.43051828 230.66174708 -34.71219194 240.11987486 -33.765625 251.2578125 C-33.75257074 253.33996691 -33.86149443 255.42241641 -34 257.5 C-33.113125 257.60183594 -32.22625 257.70367187 -31.3125 257.80859375 C-23.63439379 259.41121733 -17.49294353 265.1788375 -13.1796875 271.5390625 C-9.42454197 277.78105937 -8.41687622 283.35560411 -8 290.5 C-7.443125 290.51417969 -6.88625 290.52835937 -6.3125 290.54296875 C1.27769379 291.01735586 6.71219134 293.69614887 11.8125 299.375 C17.33192311 307.25989015 17.99631483 313.91323734 17 323.5 C14.72086239 331.36670079 8.91639304 336.440378 2 340.5 C1.01 340.5 0.02 340.5 -1 340.5 C-1.18767944 342.39397774 -1.18767944 342.39397774 -1.37915039 344.32621765 C-1.97819386 349.69627111 -2.93024164 354.9732867 -3.93359375 360.28051758 C-4.22401047 361.83829926 -4.22401047 361.83829926 -4.52029419 363.42755127 C-5.15617317 366.83381656 -5.79675242 370.23917872 -6.4375 373.64453125 C-6.88233324 376.02100467 -7.32690943 378.39752622 -7.77124023 380.77409363 C-8.70062122 385.74129616 -9.63216476 390.70808631 -10.56542969 395.67456055 C-11.7622853 402.04398662 -12.95518108 408.41414593 -14.14665222 414.78458118 C-15.06351456 419.68574074 -15.9817244 424.58664699 -16.90042114 429.487463 C-17.34083628 431.83699629 -17.78100259 434.18657624 -18.22091675 436.53620338 C-18.83481866 439.81319225 -19.45035612 443.08986947 -20.06640625 446.36645508 C-20.2482547 447.33846359 -20.43010315 448.31047211 -20.61746216 449.31193542 C-20.86978104 450.65114548 -20.86978104 450.65114548 -21.12719727 452.01741028 C-21.27246353 452.79108853 -21.4177298 453.56476679 -21.56739807 454.36188984 C-21.98514153 456.42656285 -22.47189635 458.46104356 -23 460.5 C-21.98687744 460.48428955 -20.97375488 460.4685791 -19.92993164 460.45239258 C-16.13362735 460.39766405 -12.33735718 460.36349558 -8.54077148 460.33520508 C-6.90464391 460.32021544 -5.26855585 460.29981668 -3.63256836 460.27368164 C17.24943384 459.94869473 17.24943384 459.94869473 26.4296875 466.97265625 C32.21358738 472.59829021 34.16180962 478.78022045 34.3125 486.6875 C34.30422645 494.40304066 33.27625735 499.08315698 27.90625 504.68359375 C21.47017624 510.70132271 16.84077296 512.80598442 7.97323895 512.75726891 C7.16620062 512.76077498 6.3591623 512.76428105 5.52766827 512.76789337 C2.81229723 512.7772276 0.09713972 512.77227884 -2.61824036 512.76742554 C-4.58026085 512.77116078 -6.54227985 512.77576179 -8.50429648 512.78115618 C-13.90472095 512.79341719 -19.30508362 512.79312207 -24.70551884 512.79076743 C-30.52637068 512.79036005 -36.34720249 512.80139088 -42.16804504 512.81088257 C-53.57546284 512.82751045 -64.98285997 512.83299292 -76.39028887 512.83410732 C-85.66070001 512.83505694 -94.93110431 512.83916287 -104.20151329 512.84550858 C-106.86926434 512.84729758 -109.53701539 512.84908327 -112.20476645 512.85085833 C-112.8679637 512.85130043 -113.53116095 512.85174252 -114.21445509 512.85219802 C-132.87104922 512.8645078 -151.52764102 512.872399 -170.18423939 512.87151146 C-170.88774904 512.8714803 -171.5912587 512.87144914 -172.31608683 512.87141704 C-175.88182646 512.87125083 -179.44756608 512.87105274 -183.0133057 512.87084763 C-184.07557271 512.87078779 -184.07557271 512.87078779 -185.15929965 512.87072675 C-186.59140844 512.87064587 -188.02351724 512.87056228 -189.45562603 512.87047596 C-211.73777743 512.86925041 -234.01986797 512.88426393 -256.30200195 512.91162109 C-281.3316603 512.94233885 -306.36127866 512.95955378 -331.39095706 512.95769465 C-344.64524065 512.95695332 -357.8994585 512.96255348 -371.15372658 512.98405075 C-382.4379734 513.00223521 -393.72212048 513.00663237 -405.00637559 512.9930319 C-410.76530404 512.98648851 -416.52404096 512.9864346 -422.28295135 513.0037384 C-427.55390936 513.01941337 -432.82452309 513.01666252 -438.09547242 512.99917014 C-440.00326038 512.99608794 -441.91107369 512.99977828 -443.81883178 513.01089029 C-446.41154366 513.02499283 -449.00304484 513.01444011 -451.59571552 512.99777794 C-452.33693861 513.0077143 -453.07816169 513.01765066 -453.84184608 513.02788812 C-460.8325493 512.93286284 -466.89083253 510.20496635 -471.8125 505.1875 C-478.09232399 498.3485136 -478.62310622 492.37847884 -478.40625 483.234375 C-477.6161156 475.97121643 -474.90754721 470.70168871 -469.25 466.0625 C-460.14482337 459.43155615 -449.18188396 459.96718352 -438.4375 459.8125 C-436.8404677 459.77927239 -435.24346123 459.74477784 -433.64648438 459.70898438 C-429.76446676 459.62470507 -425.88250128 459.55760577 -422 459.5 C-422.442229 459.14083496 -422.88445801 458.78166992 -423.34008789 458.41162109 C-440.57625183 444.08167554 -450.40900479 423.58399653 -453 401.5 C-454.35266677 375.92939549 -447.38812885 353.79258604 -430.6875 334.1875 C-417.37067175 320.15891024 -396.39570512 308.06634655 -376.65283203 307.42358398 C-373.97610285 307.40183212 -371.30169106 307.41268047 -368.625 307.4375 C-367.69816406 307.44201172 -366.77132812 307.44652344 -365.81640625 307.45117188 C-363.54420291 307.46288426 -361.27213612 307.47928628 -359 307.5 C-358.70480469 306.24445313 -358.40960938 304.98890625 -358.10546875 303.6953125 C-356.41345746 296.49872299 -351.95850175 291.63074047 -346 287.5 C-339.5215158 283.90383518 -332.611039 283.37380153 -325.45703125 285.12109375 C-318.72038472 287.47108672 -314.00909942 291.51509912 -309 296.5 C-302.37853807 291.05888723 -296.39158859 285.01669997 -290.35438538 278.94772339 C-289.17457425 277.76548172 -287.99453457 276.58346809 -286.81428713 275.40166199 C-284.25598799 272.83900003 -281.69930611 270.27473913 -279.14385986 267.70923233 C-274.98540501 263.53441219 -270.82346496 259.36307738 -266.66111755 255.19213867 C-260.61883054 249.13674363 -254.57816293 243.07973713 -248.53837776 237.02184677 C-238.99182113 227.44706155 -229.43947285 217.87806584 -219.88609314 208.31008911 C-216.61618418 205.03505615 -213.34630024 201.75999819 -210.07641506 198.48494148 C-209.25931994 197.66656033 -208.44222482 196.84817917 -207.60036923 196.00499859 C-198.30578626 186.69569121 -189.01208396 177.38550496 -179.71899414 168.07470703 C-178.86973531 167.22383346 -178.02047648 166.37295988 -177.14548253 165.49630226 C-163.37335141 151.69761715 -149.6068364 137.89334021 -135.84192712 124.08745144 C-121.70576252 109.9095608 -107.56195755 95.73932339 -93.41144079 81.57575715 C-84.68498497 72.84070349 -75.96480333 64.09947952 -67.2525612 55.35024883 C-61.28409327 49.35751488 -55.30836664 43.3720839 -49.32685835 37.39236604 C-45.87570531 33.94179106 -42.42791522 30.48802054 -38.98880386 27.02544022 C-35.839789 23.85506915 -32.6816617 20.69408058 -29.51607101 17.54026271 C-28.37333594 16.39852348 -27.23397662 15.25339326 -26.09839392 14.10453998 C-18.3030517 6.22312203 -11.67466328 -0.32842511 0 0 Z M-7.48048097 21.60788548 C-8.35953353 22.48807721 -9.2385861 23.36826893 -10.14427662 24.27513313 C-10.63967421 24.76706919 -11.1350718 25.25900525 -11.64548144 25.76584846 C-13.30778492 27.42019553 -14.95914902 29.08504727 -16.61079407 30.75003052 C-17.81066137 31.94858985 -19.01118762 33.14648983 -20.21231622 34.34378517 C-23.51425152 37.63900195 -26.80674213 40.94351774 -30.09779513 44.24959826 C-33.64719506 47.81193451 -37.20524078 51.36561652 -40.76225281 54.92034912 C-46.92490715 61.08142921 -53.08203799 67.2479852 -59.23546791 73.41827774 C-68.13233696 82.33951156 -77.03746291 91.25246543 -85.94463613 100.16340993 C-100.39515252 114.62049476 -114.83895452 129.08426859 -129.27856445 143.55224609 C-143.30662803 157.60784007 -157.33783408 171.6602847 -171.37329102 185.70849609 C-172.23820612 186.57419936 -173.10312122 187.43990263 -173.99424586 188.33183934 C-178.33322175 192.67473029 -182.67225963 197.01755931 -187.01132834 201.36035752 C-223.01716873 237.39730605 -259.01212617 273.44510999 -295 309.5 C-293.39464713 312.91059403 -291.59481099 315.11792484 -288.875 317.75 C-288.15054688 318.45640625 -287.42609375 319.1628125 -286.6796875 319.890625 C-286.12539063 320.42171875 -285.57109375 320.9528125 -285 321.5 C-278.3939041 316.06173245 -272.39226828 310.04687112 -266.34524536 304.00587463 C-265.16454924 302.82991553 -263.98364617 301.65416417 -262.80255497 300.47860187 C-259.56859464 297.25848344 -256.33774341 294.03526152 -253.10744762 290.81146753 C-250.33399178 288.04440294 -247.55870274 285.27918065 -244.78339405 282.51397461 C-235.64822355 273.41203812 -226.51887448 264.30427468 -217.39112073 255.19490114 C-215.01521806 252.82379685 -212.63922328 250.4527849 -210.26320791 248.08179355 C-195.50531173 233.35485222 -180.74955192 218.62577253 -165.99873543 203.89173985 C-162.58642599 200.48337976 -159.17408972 197.07504653 -155.76171875 193.66674805 C-154.48956217 192.39610401 -154.48956217 192.39610401 -153.19170545 191.09979039 C-139.43198108 177.35709775 -125.66024539 163.626506 -111.88366295 149.90071524 C-97.73920283 135.80797558 -83.60604315 121.70398166 -69.48378837 107.58898968 C-61.55432081 99.66418923 -53.61985831 91.7445309 -45.67261124 83.83755684 C-38.91003954 77.10921439 -32.15765016 70.37086339 -25.4185185 63.61903996 C-21.97888774 60.17356737 -18.53452627 56.73319339 -15.07699013 53.30568123 C-11.9135851 50.169524 -8.76426858 47.01990956 -5.62571095 43.8588916 C-4.48647321 42.71641639 -3.34211258 41.57902265 -2.19225682 40.4472347 C-0.63209415 38.91011693 0.90849804 37.35569896 2.44555473 35.79552555 C3.30714286 34.93567368 4.16873098 34.0758218 5.05642784 33.18991381 C7.44486566 29.88430365 7.86719287 27.54750552 8 23.5 C6.31734126 20.63324806 5.0651581 19.01539908 2.0625 17.5625 C-1.89105546 17.44269529 -4.52366939 19.09521948 -7.48048097 21.60788548 Z M-96 239.5 C-97.13538389 241.22236633 -98.25933515 242.9522956 -99.375 244.6875 C-102.53056634 249.33528644 -102.53056634 249.33528644 -106.5625 250.75 C-110.06591637 250.49520608 -112.70382089 249.66739677 -116 248.5 C-121.88950983 247.84561002 -126.2836269 248.98253687 -131 252.5 C-134.97697231 256.9489867 -136.59846926 261.68457479 -137.4453125 267.51953125 C-138.15343998 270.04784557 -138.88015368 270.94666433 -141 272.5 C-143.7421875 273.30859375 -143.7421875 273.30859375 -146.875 273.9375 C-152.8195221 275.32144785 -156.08468956 276.90065012 -159.75 281.875 C-161.356201 284.93733649 -161.356201 284.93733649 -162 290.5 C-117.12 290.5 -72.24 290.5 -26 290.5 C-28.12578172 281.44080652 -28.12578172 281.44080652 -34.625 275.8125 C-38.29424272 274.38557227 -41.7440788 273.74963418 -45.6328125 273.22265625 C-48.84237336 272.24283982 -50.0784891 271.26962606 -52 268.5 C-52.21434677 265.62246806 -52.23353283 263.10147166 -52.0625 260.25 C-51.82652547 252.11102404 -52.42706719 247.11601368 -57.3125 240.25 C-62.97599456 234.45479627 -68.72259499 231.50011152 -76.8125 231.125 C-84.13712437 231.27943485 -90.82379336 234.32379336 -96 239.5 Z M-337.6875 304.125 C-340.16485569 306.34778362 -340.16485569 306.34778362 -341.0625 309.375 C-340.94287842 315.35607884 -336.31189424 319.43806134 -332.26318359 323.47973633 C-331.57949959 324.16626785 -331.57949959 324.16626785 -330.88200378 324.8666687 C-329.39230473 326.36003661 -327.89559371 327.84614261 -326.3984375 329.33203125 C-325.35482887 330.3744463 -324.31159126 331.41723291 -323.26870728 332.46037292 C-321.0913999 334.63612245 -318.91079304 336.80848944 -316.72753906 338.97827148 C-313.92686955 341.76187807 -311.13290226 344.55209645 -308.34113121 347.34462452 C-306.19163248 349.49385177 -304.03954114 351.64046659 -301.88655472 353.78619957 C-300.85489671 354.81467366 -299.82384479 355.84375607 -298.79340744 356.87345314 C-297.35746165 358.30723666 -295.91783355 359.73732948 -294.47802734 361.16723633 C-293.65958344 361.98186844 -292.84113953 362.79650055 -291.99789429 363.63581848 C-289.30918346 366.14458237 -288.36007776 366.46665947 -284.625 366.8125 C-281.0297535 366.78581203 -281.0297535 366.78581203 -278.5625 364.9375 C-276.22947903 361.29798729 -276.10204777 359.78254141 -277 355.5 C-278.72304083 353.18889638 -278.72304083 353.18889638 -280.9440918 350.875 C-281.76227386 349.99312012 -282.58045593 349.11124023 -283.4234314 348.20263672 C-287.46860481 343.95953829 -291.5644957 339.77303779 -295.70703125 335.625 C-296.59484787 334.73385498 -297.48266449 333.84270996 -298.39738464 332.92456055 C-300.25572506 331.06119845 -302.11538446 329.19915091 -303.97631836 327.33837891 C-306.35628083 324.95851913 -308.72922201 322.57178365 -311.10057545 320.18334961 C-313.3815689 317.88858004 -315.66973423 315.60098393 -317.95703125 313.3125 C-319.22895073 312.02980225 -319.22895073 312.02980225 -320.52656555 310.72119141 C-321.71381477 309.53855713 -321.71381477 309.53855713 -322.92504883 308.33203125 C-323.96354729 307.29139526 -323.96354729 307.29139526 -325.02302551 306.22973633 C-329.09532684 302.66671232 -332.65939797 301.08475226 -337.6875 304.125 Z M-187 312.5 C-187.75 316 -187.75 316 -187 319.5 C-185.13291495 321.86497439 -183.67938569 323.16030715 -181 324.5 C-178.73091023 324.60110737 -176.45875877 324.63514187 -174.18742371 324.64044189 C-173.47870457 324.64341302 -172.76998544 324.64638414 -172.03978997 324.6494453 C-169.65306107 324.65815163 -167.26638222 324.65964217 -164.87963867 324.66113281 C-163.17319125 324.66575964 -161.46674486 324.67078411 -159.76029968 324.67617798 C-155.11560282 324.68931747 -150.47092043 324.69575 -145.82620788 324.70018864 C-142.9258929 324.703117 -140.02558191 324.70722136 -137.12526894 324.71169281 C-128.05529523 324.72537211 -118.98533059 324.73503652 -109.91534728 324.7388947 C-99.43725657 324.74337602 -88.95929627 324.76092552 -78.48124522 324.7898953 C-70.38777275 324.81149711 -62.294337 324.82159819 -54.200836 324.82293582 C-49.36437651 324.82398497 -44.52803954 324.82991602 -39.69161034 324.84775543 C-35.14194255 324.8642101 -30.59248971 324.86640433 -26.04280281 324.85761642 C-24.37267355 324.85684464 -22.70253285 324.86120739 -21.03243256 324.87107468 C-18.75254033 324.88375493 -16.47341389 324.87793926 -14.19352722 324.86749268 C-12.91759799 324.86895924 -11.64166876 324.8704258 -10.327075 324.8719368 C-6.7420286 324.47116114 -4.85491987 323.66463738 -2 321.5 C-0.43569752 318.37139505 -0.64372716 315.94397075 -1 312.5 C-3.72090733 309.61552701 -5.40549281 308.58933138 -9.34992981 307.99663544 C-11.28010201 307.99437328 -11.28010201 307.99437328 -13.24926758 307.99206543 C-13.96871709 307.98582547 -14.6881666 307.9795855 -15.42941761 307.97315645 C-17.83479108 307.95722996 -20.23915067 307.96982855 -22.64453125 307.98242188 C-24.37113027 307.97700057 -26.09772467 307.96987787 -27.8243103 307.96118164 C-32.51026628 307.94294624 -37.19586999 307.95001669 -41.88183212 307.96269798 C-46.78557027 307.97282452 -51.68927825 307.96343327 -56.59301758 307.95715332 C-64.82801733 307.94987591 -73.06287359 307.95946709 -81.29785156 307.97851562 C-90.81884542 308.00028454 -100.33949666 307.99323324 -109.86048222 307.97121 C-118.03472101 307.95305869 -126.20885666 307.95049637 -134.38310909 307.96096468 C-139.26536106 307.96720108 -144.14745198 307.96803119 -149.0296936 307.95481873 C-153.61971705 307.94326476 -158.20929873 307.95127759 -162.79927444 307.97439575 C-164.48390596 307.97968528 -166.16857465 307.97816487 -167.85319138 307.96934509 C-170.15287376 307.9584151 -172.45114029 307.9721205 -174.75073242 307.99206543 C-176.68090462 307.99432758 -176.68090462 307.99432758 -178.65007019 307.99663544 C-182.59348244 308.5891774 -184.26812231 309.63044829 -187 312.5 Z M-418.21484375 347.8046875 C-430.70064519 362.42338016 -436.15732579 380.47777241 -435 399.5 C-433.08713728 413.11596773 -428.45248117 424.67714912 -420 435.5 C-419.48953125 436.18707031 -418.9790625 436.87414062 -418.453125 437.58203125 C-408.41333963 450.18146487 -392.55638284 457.62986309 -377 460.5 C-372.3471202 460.88143029 -367.72787247 460.88123383 -363.06152344 460.84057617 C-361.71001708 460.83972759 -360.35850935 460.84020954 -359.00700378 460.84190369 C-355.37754016 460.84275607 -351.7483807 460.82525493 -348.11898708 460.80418181 C-344.31137619 460.78528698 -340.5037565 460.78365457 -336.69610596 460.78010559 C-329.50345619 460.77082241 -322.31094503 460.74625977 -315.11835599 460.71605712 C-306.92236452 460.68239625 -298.72636606 460.66599788 -290.53032255 460.65097082 C-273.68680088 460.61970636 -256.84341819 460.56701935 -240 460.5 C-239.88113541 450.90063593 -243.37236087 443.49666136 -250 436.5 C-259.22238166 428.6760217 -269.20071185 427.05981511 -280.9921875 427.1640625 C-283.26562794 427.15156505 -285.53906547 427.13852865 -287.8125 427.125 C-291.36110558 427.12105272 -294.90942842 427.12514075 -298.45800781 427.13964844 C-301.90732999 427.14818871 -305.35546972 427.12660774 -308.8046875 427.1015625 C-309.86823456 427.11490631 -310.93178162 427.12825012 -312.02755737 427.14199829 C-319.35582009 427.06815794 -319.35582009 427.06815794 -322.66455078 424.14990234 C-324.32028873 420.86445816 -324.68050427 419.12935613 -324 415.5 C-321.95695915 412.74189485 -320.33481042 410.81471266 -316.90209961 410.00537109 C-314.48722768 409.78503144 -312.11217984 409.70472346 -309.6875 409.6875 C-308.85154297 409.66236328 -308.01558594 409.63722656 -307.15429688 409.61132812 C-305.10336591 409.5527301 -303.05163407 409.52343507 -301 409.5 C-299.66785547 402.47055876 -298.44499109 395.66466051 -299 388.5 C-299.05671875 387.6646875 -299.1134375 386.829375 -299.171875 385.96875 C-299.7767289 381.18752394 -300.64590935 378.34725182 -304.47509766 375.30566406 C-309.57799781 371.06515561 -314.2147207 366.42897522 -318.8984375 361.734375 C-319.81460846 360.81916077 -320.73077942 359.90394653 -321.67471313 358.96099854 C-323.5974303 357.03974333 -325.51835817 355.11672231 -327.43798828 353.19238281 C-329.89582921 350.72880501 -332.35818799 348.26979914 -334.82187462 345.81206894 C-337.18315876 343.4552631 -339.5406306 341.0946596 -341.8984375 338.734375 C-342.78171722 337.85311951 -343.66499695 336.97186401 -344.57504272 336.06390381 C-345.38994171 335.24585266 -346.2048407 334.42780151 -347.04443359 333.58496094 C-347.76198822 332.86661072 -348.47954285 332.1482605 -349.21884155 331.40814209 C-351 329.5 -351 329.5 -353 326.5 C-376.06917027 319.05692808 -402.50974024 331.4625163 -418.21484375 347.8046875 Z M-168 342.5 C-167.27772736 350.19589506 -167.27772736 350.19589506 -166.12719727 357.75794983 C-165.95898468 358.6705658 -165.79077209 359.58318176 -165.61746216 360.52345276 C-165.43561371 361.48645798 -165.25376526 362.4494632 -165.06640625 363.44165039 C-164.8727951 364.48513641 -164.67918396 365.52862244 -164.47970581 366.60372925 C-163.8448186 370.01916607 -163.20387233 373.4334318 -162.5625 376.84765625 C-162.11766653 379.22988739 -161.67309034 381.61216659 -161.22875977 383.99449158 C-160.30007527 388.96843792 -159.36840115 393.94181228 -158.43457031 398.91479492 C-157.2352073 405.30308438 -156.04319178 411.69271912 -154.85334778 418.08278751 C-153.93831071 422.99274443 -153.01952902 427.90199472 -152.09957886 432.81103325 C-151.65825355 435.16845822 -151.21808792 437.52610059 -150.77908325 439.88395882 C-150.1677193 443.16433241 -149.55135691 446.44372677 -148.93359375 449.72290039 C-148.7517453 450.70412369 -148.56989685 451.68534698 -148.38253784 452.69630432 C-148.13021896 454.02716064 -148.13021896 454.02716064 -147.87280273 455.38490295 C-147.72753647 456.16004777 -147.5822702 456.93519258 -147.43260193 457.73382664 C-147.15822365 459.51463652 -147.15822365 459.51463652 -146 460.5 C-144.6465941 460.59531163 -143.28826016 460.6218872 -141.9315033 460.62025452 C-140.61683327 460.62231651 -140.61683327 460.62231651 -139.27560425 460.62442017 C-138.30672272 460.62082489 -137.33784119 460.61722961 -136.33959961 460.61352539 C-135.32508224 460.61367142 -134.31056488 460.61381744 -133.26530457 460.6139679 C-129.89429627 460.61326829 -126.52334246 460.60547368 -123.15234375 460.59765625 C-120.82206757 460.59579224 -118.491791 460.59436826 -116.16151428 460.59336853 C-110.01462735 460.58954202 -103.86776387 460.5797106 -97.72088623 460.56866455 C-91.45390134 460.55845329 -85.18691268 460.55387152 -78.91992188 460.54882812 C-66.61327092 460.53808845 -54.30663741 460.52101044 -42 460.5 C-40.23943833 454.74546821 -39.04646531 448.96569302 -37.93701172 443.05419922 C-37.74164825 442.02733002 -37.54628479 441.00046082 -37.34500122 439.94247437 C-36.70320311 436.56383915 -36.06623266 433.18431603 -35.4296875 429.8046875 C-34.9842959 427.4500948 -34.53874713 425.09553184 -34.0930481 422.74099731 C-33.16121889 417.81391176 -32.2318871 412.886363 -31.30419922 407.95849609 C-30.11467156 401.64130768 -28.9180268 395.32549132 -27.71940422 389.01002312 C-26.79829806 384.15165863 -25.88141439 379.29250451 -24.96576309 374.43310928 C-24.52620236 372.10362281 -24.08521802 369.77440449 -23.64278793 367.44546127 C-23.02556347 364.19344869 -22.41413898 360.94039732 -21.80419922 357.68701172 C-21.62032654 356.72480713 -21.43645386 355.76260254 -21.24700928 354.77124023 C-21.08161652 353.8825827 -20.91622375 352.99392517 -20.74581909 352.07833862 C-20.60092985 351.31035887 -20.45604061 350.54237911 -20.30676079 349.75112724 C-19.88748168 347.0529532 -19.88748168 347.0529532 -20 342.5 C-68.84 342.5 -117.68 342.5 -168 342.5 Z M-459 481.5 C-460.54586876 484.59173752 -460.29359521 487.09429552 -460 490.5 C-458.53579137 492.84941152 -458.53579137 492.84941152 -456 494.5 C-453.26838897 494.89210203 -450.94014602 495.03795199 -448.21005249 495.00336456 C-447.01968868 495.01208521 -447.01968868 495.01208521 -445.80527711 495.02098203 C-443.12948329 495.0356525 -440.45459668 495.0216643 -437.77880859 495.00793457 C-435.84779578 495.0125407 -433.91678647 495.01889168 -431.98578453 495.02684355 C-426.66651305 495.04359947 -421.34752725 495.03526209 -416.02825451 495.02289867 C-410.29675003 495.01387607 -404.56529587 495.02780401 -398.83380127 495.03881836 C-387.60068101 495.05663805 -376.36766744 495.05274824 -365.13454294 495.0411678 C-356.00804167 495.0321473 -346.88157037 495.03090347 -337.75506592 495.03526306 C-335.8093076 495.03618246 -335.8093076 495.03618246 -333.82424104 495.03712043 C-331.18935409 495.03839929 -328.55446715 495.03969614 -325.91958022 495.0410108 C-301.89698181 495.05210104 -277.87444114 495.04058509 -253.85185203 495.01964041 C-231.91227117 495.00065733 -209.97278317 495.00235581 -188.03320312 495.02148438 C-163.39581811 495.04289317 -138.75848924 495.05132797 -114.12109566 495.03903532 C-111.49570847 495.03776108 -108.87032128 495.03650359 -106.24493408 495.03526306 C-104.95307328 495.03464596 -103.66121247 495.03402886 -102.33020437 495.03339306 C-93.21090728 495.0299342 -84.09164307 495.03578002 -74.97235107 495.04518127 C-63.86435548 495.05638061 -52.756473 495.05340476 -41.64849043 495.0320583 C-35.97715749 495.02152006 -30.30601339 495.01747321 -24.6346817 495.03065491 C-19.4483807 495.04252727 -14.26244453 495.03610176 -9.07617688 495.0147447 C-7.19468017 495.01025668 -5.31315297 495.01259381 -3.43167567 495.02224785 C-0.88398796 495.0343229 1.66243221 495.02202851 4.21005249 495.00336456 C4.94923471 495.01272923 5.68841693 495.02209389 6.44999862 495.03174233 C9.83791264 494.98176201 11.69745623 494.72333416 14.45562172 492.68728971 C16.71768157 489.48355375 16.54624667 487.32372672 16 483.5 C14.13291495 481.13502561 12.67938569 479.83969285 10 478.5 C7.49800039 478.40074616 5.02375526 478.3625703 2.52141094 478.36857224 C1.73719585 478.3665196 0.95298075 478.36446697 0.14500156 478.36235213 C-2.51071364 478.35664998 -5.1663775 478.35814332 -7.82209778 478.35955811 C-9.73416841 478.35697631 -11.64623849 478.35396367 -13.55830783 478.3505547 C-18.834469 478.34245965 -24.11061659 478.34069374 -29.38678324 478.33995724 C-35.06856378 478.33811103 -40.7503372 478.33056591 -46.43211365 478.32382202 C-58.86581774 478.31022053 -71.29951862 478.3042112 -83.73322892 478.29981136 C-91.49132433 478.29705208 -99.24941848 478.29281532 -107.00751305 478.28830719 C-128.47149637 478.2761123 -149.93547806 478.26577792 -171.39946461 478.2624321 C-172.78799346 478.26221046 -174.17652232 478.26198868 -175.56505118 478.26176675 C-176.95697277 478.2615461 -178.34889435 478.26132562 -179.74081594 478.2611053 C-182.53334669 478.26066274 -185.32587745 478.26021563 -188.1184082 478.25976562 C-188.81079564 478.25965623 -189.50318309 478.25954684 -190.21655197 478.25943414 C-212.67309142 478.25580257 -235.12959861 478.23987932 -257.58612571 478.21657526 C-281.31728897 478.1919934 -305.04843006 478.17826676 -328.779607 478.17706418 C-341.72027996 478.17614603 -354.66091068 478.17035861 -367.60157204 478.15224457 C-378.61916444 478.13687716 -389.63670156 478.1317032 -400.65430263 478.13998267 C-406.27914275 478.14390108 -411.90387142 478.14290173 -417.52869797 478.12892532 C-422.67373779 478.11625759 -427.81858159 478.11732079 -432.96362086 478.12951604 C-434.82905005 478.13148546 -436.69449279 478.12833768 -438.55990288 478.11967167 C-441.08813869 478.1086662 -443.61567204 478.11600482 -446.14388752 478.1280632 C-446.87459704 478.12046801 -447.60530656 478.11287282 -448.3581588 478.10504746 C-452.73479134 478.15036678 -455.51836139 478.80786999 -459 481.5 Z " fill="#000000" transform="translate(478,-0.5)"/>
<path d="M0 0 C1.15628906 -0.05607422 1.15628906 -0.05607422 2.3359375 -0.11328125 C5.73351939 0.51869217 6.65551304 1.44779169 8.625 4.3125 C9.46204145 7.71515463 9.78121447 11.14259616 10.125 14.625 C12.79275267 36.9004624 19.53783769 57.4815272 37.11328125 72.4609375 C45.97199581 78.99131184 56.22333716 82.76902588 67.140625 83.7578125 C67.94097168 83.83161133 68.74131836 83.90541016 69.56591797 83.98144531 C71.15688685 84.11612713 72.74995111 84.22842631 74.34423828 84.31542969 C78.46215321 84.64012697 80.25644394 85.02829487 83.62890625 87.62890625 C86.64011502 91.67724368 86.33058332 93.37341673 85.625 98.3125 C83.75484906 100.74369623 82.34361655 101.95319173 79.625 103.3125 C77.51886246 103.52395118 75.41208872 103.73072957 73.30273438 103.90722656 C57.70539801 105.2378333 41.68507577 109.40362772 30.625 121.3125 C17.33911498 137.33371429 11.65891594 155.48343192 9.8762207 175.91357422 C9.40783742 180.38365907 9.05047085 182.75016936 6.28125 186.41015625 C2.63958176 189.01823336 2.63958176 189.01823336 -0.375 189 C-1.014375 189.02449219 -1.65375 189.04898438 -2.3125 189.07421875 C-5.72850264 187.81262687 -7.65338971 185.40274599 -9.375 182.3125 C-10.13420193 179.34590953 -10.29077482 176.42632897 -10.4375 173.375 C-12.08228396 152.3351342 -19.15675344 132.91894788 -34.5625 118 C-46.68093193 107.90130672 -61.2495824 104.234844 -76.75390625 103.71875 C-79.92586361 103.22712024 -81.8108819 102.22668538 -84.375 100.3125 C-85.9152467 96.69626861 -86.62771313 94.42443778 -85.75 90.5625 C-84.12786112 87.90809092 -83.07680214 86.88170669 -80.375 85.3125 C-77.52630072 84.87843987 -74.80102378 84.57883497 -71.9375 84.375 C-55.01727776 82.80418865 -40.00380849 77.12676955 -28.375 64.3125 C-16.02107435 48.30037306 -10.39550753 29.23412168 -9.78125 9.1171875 C-9.31060458 5.8679239 -8.29379257 3.95554271 -6.375 1.3125 C-4.07513269 0.16256634 -2.56030912 0.0808071 0 0 Z M-0.375 53.3125 C-0.76429688 54.10011719 -1.15359375 54.88773438 -1.5546875 55.69921875 C-9.65309907 71.46686339 -20.15244699 85.2012235 -36.375 93.3125 C-33.49808937 96.35111053 -30.49586602 98.74058314 -27.0625 101.125 C-14.8218197 109.97720059 -6.5529966 121.5594724 -0.375 135.3125 C1.65016766 132.38250922 1.65016766 132.38250922 3.18359375 129.37890625 C10.70238076 115.35738453 21.31837341 102.76386801 35.625 95.3125 C34.44701148 91.77853445 33.77151295 91.54115981 30.6875 89.6875 C16.69861845 80.64239117 7.44099991 68.38788804 0.625 53.3125 C0.295 53.3125 -0.035 53.3125 -0.375 53.3125 Z " fill="#000000" transform="translate(230.375,-0.3125)"/>
<path d="M0 0 C6.18267518 0.17997513 6.18267518 0.17997513 9.28125 2.50390625 C11.52770464 5.68638365 11.98238972 7.96770536 12.37597656 11.83349609 C13.88576385 26.44728919 17.58552886 40.79093123 28.76953125 51.1015625 C36.03148128 56.61500418 44.06684717 58.38412679 52.94287109 59.37792969 C56.67554801 59.87584966 58.52203418 60.37704987 61.2578125 63.03515625 C63.14382647 66.24621593 63.316674 67.95742739 62.78125 71.62890625 C61.90625 74.37890625 61.90625 74.37890625 59.78125 76.62890625 C56.51781125 77.68491177 53.16444383 78.10558997 49.78125 78.62890625 C38.35309915 80.82142928 29.22362895 84.41011803 22.30859375 94.15625 C15.30049089 105.50184875 12.86819608 117.71429879 11.6015625 130.8515625 C10.52379049 134.50059061 8.96079017 135.63114207 5.78125 137.62890625 C2.28125 138.19140625 2.28125 138.19140625 -1.21875 137.62890625 C-4.91862805 134.89253811 -6.48064619 132.6849047 -7.1875 128.22265625 C-7.38029968 126.52645231 -7.55668126 124.82832181 -7.71875 123.12890625 C-9.53824019 108.38476157 -14.14454467 94.82406041 -26.0390625 85.12890625 C-33.14003174 80.24221774 -40.55693776 79.07453333 -49.01953125 78.31640625 C-52.78204082 77.50785718 -54.57112774 76.40353622 -57.21875 73.62890625 C-58.08787854 70.56266396 -57.8535705 67.74009862 -57.21875 64.62890625 C-55.34254387 62.12729807 -53.97983697 61.00944973 -51.21875 59.62890625 C-48.88742726 59.36080414 -46.55360463 59.11427466 -44.21875 58.87890625 C-34.40284128 57.70230974 -25.91870808 54.07147052 -19.21875 46.62890625 C-10.85832757 35.85919953 -7.92367357 22.14458378 -6.87109375 8.8359375 C-5.99471248 4.52750026 -4.44816362 1.26083511 0 0 Z M1.78125 47.62890625 C0.71207576 49.29911347 -0.32311175 50.99110532 -1.34375 52.69140625 C-4.4856911 57.71077006 -7.8611836 61.65963785 -12.21875 65.62890625 C-13.4253125 66.83546875 -13.4253125 66.83546875 -14.65625 68.06640625 C-15.171875 68.58203125 -15.6875 69.09765625 -16.21875 69.62890625 C-15.72246094 70.04140625 -15.22617187 70.45390625 -14.71484375 70.87890625 C-7.99400794 76.59225434 -1.71681402 82.39816738 1.78125 90.62890625 C4.29424138 88.30401303 6.04450299 85.80597834 7.90625 82.94140625 C11.10115246 78.26877589 14.68321859 74.78723568 19.05859375 71.22265625 C19.62707031 70.69671875 20.19554687 70.17078125 20.78125 69.62890625 C20.78125 68.96890625 20.78125 68.30890625 20.78125 67.62890625 C17.30126493 63.99257086 17.30126493 63.99257086 12.78125 62.62890625 C12.53503906 62.0875 12.28882812 61.54609375 12.03515625 60.98828125 C10.49458603 58.08951362 8.65191436 55.53130599 6.71875 52.87890625 C5.64947266 51.40164062 5.64947266 51.40164062 4.55859375 49.89453125 C3.97207031 49.146875 3.38554688 48.39921875 2.78125 47.62890625 C2.45125 47.62890625 2.12125 47.62890625 1.78125 47.62890625 Z " fill="#000000" transform="translate(57.21875,127.37109375)"/>
<path d="M0 0 C6.90235362 4.62746215 11.14288198 9.8410615 13 18 C14.08926286 26.24546656 12.52575521 34.07616951 7.4375 40.75 C1.67153422 46.7979201 -4.70353903 49.29133798 -13 49.625 C-21.34479232 49.28939422 -27.73115168 46.80571468 -33.4375 40.625 C-39.13981716 33.06498745 -40.00122379 26.37509552 -39 17 C-37.31756919 10.35039252 -33.58556943 4.97791476 -28 1 C-18.64464278 -3.71956827 -9.55538567 -4.81008397 0 0 Z M-18.375 17.0625 C-21.19513758 19.74250242 -21.19513758 19.74250242 -21.6875 23 C-20.76080628 27.04375441 -19.31669279 28.54853142 -16 31 C-12.62182812 31.55153827 -10.7864448 31.3613395 -7.6875 29.9375 C-5.15014929 27.02424548 -5 24.8137751 -5 21 C-6.88389061 17.53364128 -8.20401259 16.31147333 -11.875 14.875 C-15.21391971 14.75454198 -15.21391971 14.75454198 -18.375 17.0625 Z " fill="#000000" transform="translate(491,190)"/>
<path d="M0 0 C6.20402749 3.74968695 10.35171894 7.75241133 12.57421875 14.828125 C14.17169549 22.97672194 13.72221342 30.60543389 9.55078125 37.84375 C5.74336823 43.13768448 0.48788677 47.56745566 -6 49 C-14.08304691 49.84809171 -21.05148142 49.45230707 -28 45 C-33.95541727 40.12738587 -38.41208245 33.49365576 -39.23828125 25.7734375 C-39.49597156 17.44597178 -37.5369496 10.40266989 -31.875 4.125 C-22.94680789 -3.92750589 -10.62131828 -5.67323426 0 0 Z M-17.8125 16.5625 C-20.43681169 19.48673302 -20.91872313 21.09871003 -21 25 C-19.87981101 28.36056696 -19.05465901 28.96356066 -16 31 C-13.0850745 31.5838196 -13.0850745 31.5838196 -10 31 C-6.63655511 28.51397551 -5.19942251 27.08574477 -4.4375 22.9375 C-5.13644685 19.28744421 -5.98202045 18.14435389 -9 16 C-12.8166059 14.70072991 -14.25788881 14.58771601 -17.8125 16.5625 Z " fill="#000000" transform="translate(448,139)"/>
<path d="M0 0 C1.07030457 -0.00717545 1.07030457 -0.00717545 2.16223145 -0.01449585 C3.66498022 -0.0178856 5.16780366 -0.00874758 6.67041016 0.01220703 C8.96294475 0.03899467 11.25058534 0.01243719 13.54296875 -0.01953125 C15.00782324 -0.01622698 16.4726747 -0.00982036 17.9375 0 C18.95801453 -0.01518173 18.95801453 -0.01518173 19.99914551 -0.03067017 C23.845657 0.063442 25.38902246 0.59850491 28.40014648 3.07446289 C30.43652181 5.62371735 31.13872758 6.54649047 31.03125 9.7265625 C30.46875 13.6640625 30.46875 13.6640625 28.59375 16.1015625 C23.45429926 19.8805704 17.48389819 18.88772616 11.34790039 18.90429688 C9.17490017 18.9139794 7.00285537 18.94499076 4.83007812 18.9765625 C3.44271394 18.98309519 2.055343 18.98834462 0.66796875 18.9921875 C-1.22175659 19.00620605 -1.22175659 19.00620605 -3.1496582 19.02050781 C-6.77745565 18.63811057 -8.64785886 17.85401357 -11.53125 15.6640625 C-13.11023053 12.50610143 -13.35053171 9.05735614 -12.53125 5.6640625 C-8.7744902 0.93808891 -5.8402612 -0.08688292 0 0 Z " fill="#000000" transform="translate(396.53125,357.3359375)"/>
<path d="M0 0 C2.64828054 2.30656692 2.95926765 3.78819179 3.625 7.25 C2.71869013 12.68785922 -0.17175125 15.20655352 -4 19 C-4.79148437 19.81597656 -5.58296875 20.63195312 -6.3984375 21.47265625 C-13.66528017 28.8923613 -13.66528017 28.8923613 -18.875 29.3125 C-22.07613675 29.28345157 -22.79001963 29.16152336 -25.4375 27.125 C-28.0578891 23.56127082 -28.65859563 21.4455205 -28 17 C-25.99559173 14.01537953 -23.52247456 11.55014339 -21 9 C-20.24332031 8.19433594 -19.48664063 7.38867188 -18.70703125 6.55859375 C-12.64115214 0.228539 -8.91900523 -3.6336688 0 0 Z " fill="#000000" transform="translate(117,18)"/>
<path d="M0 0 C4.47600802 2.61861694 8.13166487 5.82152634 11.75 9.5 C12.47123047 10.20962891 12.47123047 10.20962891 13.20703125 10.93359375 C18.90584905 16.66415984 18.90584905 16.66415984 19.08203125 21.03515625 C18.69250504 23.96507079 18.37103741 26.36099112 16.875 28.9375 C13.90080059 30.62287966 11.39585535 30.88290154 8 31 C3.04394677 28.70931561 -0.4811829 24.78059876 -4.25 20.9375 C-4.88679688 20.30005859 -5.52359375 19.66261719 -6.1796875 19.00585938 C-11.92112263 13.20945306 -11.92112263 13.20945306 -12.1875 9.125 C-12.00322294 6.05371571 -11.7058043 4.51381686 -10 2 C-6.24543433 -0.50304378 -4.45254066 -0.45280074 0 0 Z " fill="#000000" transform="translate(101,55)"/>
<path d="M0 0 C3.02953353 2.29510116 2.99705488 3.98232929 3.625 7.75 C3.38679213 13.35306345 -0.19945334 16.25534373 -4 20 C-4.721875 20.8146875 -5.44375 21.629375 -6.1875 22.46875 C-12.54371605 29.4429315 -12.54371605 29.4429315 -17.3125 30.1875 C-22.49909256 29.92377495 -22.49909256 29.92377495 -25 28 C-27.08426265 24.87360602 -27.60920101 22.91200943 -27.5 19.171875 C-26.48976221 14.78365459 -23.13063836 12.05094938 -20 9 C-19.20851563 8.1853125 -18.41703125 7.370625 -17.6015625 6.53125 C-11.47160171 0.26242279 -8.81808307 -2.03494225 0 0 Z " fill="#000000" transform="translate(78,56)"/>
<path d="M0 0 C5.08786232 1.68413561 8.60942208 5.97400294 12.2421875 9.7421875 C12.96535156 10.4228125 13.68851563 11.1034375 14.43359375 11.8046875 C17.7912837 15.16916067 19.69167569 17.65236566 19.9921875 22.4921875 C19.70159722 25.72779854 19.31118434 26.65378529 17.2421875 29.3046875 C13.44486684 31.12423698 10.3218739 31.7438277 6.2421875 30.7421875 C3.00664898 28.50650225 0.45494971 25.75703539 -2.1953125 22.8671875 C-2.91396484 22.12082031 -3.63261719 21.37445313 -4.37304688 20.60546875 C-10.60739404 14.0708839 -10.60739404 14.0708839 -11.1328125 9.4296875 C-10.7578125 5.7421875 -10.7578125 5.7421875 -8.7578125 2.8046875 C-5.75114157 0.73760124 -3.69310036 -0.23691587 0 0 Z " fill="#000000" transform="translate(61.7578125,16.2578125)"/>
<path d="M0 0 C1.63388672 -0.04930664 1.63388672 -0.04930664 3.30078125 -0.09960938 C11.28641383 -0.15336822 11.28641383 -0.15336822 15.3515625 2.7109375 C18.02748127 6.82501526 17.73881214 8.60372939 17.125 13.4375 C15.38246655 16.67363354 14.65314056 17.26145315 11.125 18.4375 C7.33811621 18.72001603 3.54625314 18.71502224 -0.25 18.75 C-1.2915625 18.77900391 -2.333125 18.80800781 -3.40625 18.83789062 C-11.06145693 18.90152086 -11.06145693 18.90152086 -15.0390625 16.6328125 C-17.60455507 13.56513841 -17.875 11.4031438 -17.875 7.4375 C-14.17547671 -0.8864274 -8.00821516 0.04234661 0 0 Z " fill="#000000" transform="translate(349.875,357.5625)"/>
</svg>
