<?xml version="1.0" encoding="UTF-8"?>
<svg version="1.1" xmlns="http://www.w3.org/2000/svg" width="512" height="512">
<path d="M0 0 C27.17945515 23.05042288 48.72205699 53.64377764 52.625 89.9375 C52.65722458 92.75302275 52.61365151 95.56132159 52.55908203 98.37646484 C52.25882105 114.25059277 52.82739678 128.16729743 63.95703125 140.52734375 C68.25274216 144.91543554 72.7668506 149.03467167 77.4296875 153.02734375 C80.20921957 155.4458334 82.91646759 157.94028941 85.625 160.4375 C88.90335583 163.4569716 92.19081574 166.45952672 95.5625 169.375 C99.74765554 173.00096983 103.79260089 176.77393849 107.85180664 180.53930664 C110.69848555 183.17508993 113.55855154 185.78208364 116.5 188.3125 C121.11905098 192.30523898 125.54188908 196.50835933 129.99560547 200.68310547 C133.50721102 203.97136419 137.03640305 207.23296694 140.625 210.4375 C145.47049353 214.76785801 150.21316084 219.20366255 154.95703125 223.64453125 C158.82634761 227.26471658 162.71327352 230.86317311 166.625 234.4375 C173.02754428 240.29149966 179.36577814 246.21318104 185.70166016 252.13916016 C188.84068582 255.07417704 191.98299492 258.00567347 195.125 260.9375 C196.3763129 262.10545716 197.62761498 263.27342592 198.87890625 264.44140625 C201.36543125 266.76220607 203.85244869 269.08247648 206.33984375 271.40234375 C209.45175371 274.30483356 212.56219785 277.20888775 215.671875 280.11376953 C217.01774375 281.37047448 218.36412869 282.62662677 219.7109375 283.88232422 C233.68533783 296.91294065 233.68533783 296.91294065 239.77197266 303.1159668 C241.54784275 304.86165412 243.37775152 306.48700355 245.26953125 308.10546875 C249.93643642 312.16873739 254.39713718 316.41606047 258.8125 320.75 C259.59302734 321.49314453 260.37355469 322.23628906 261.17773438 323.00195312 C269.78567153 331.4784714 274.59589565 341.06611138 274.9375 353.25 C274.72779231 364.03144221 271.38766949 374.26165039 263.55078125 381.98046875 C253.29149676 390.37768415 242.73958364 392.98137381 229.625 391.9375 C216.31011846 389.12336441 208.3642235 380.99037107 199.0625 371.5625 C198.15564453 370.655 197.24878906 369.7475 196.31445312 368.8125 C191.77445754 364.24287428 187.38806182 359.60643886 183.19165039 354.72021484 C180.7963893 351.99461152 178.22195715 349.46905996 175.625 346.9375 C171.65836235 343.02496404 167.87914849 339.04188804 164.265625 334.796875 C161.83776113 332.04529595 159.20750081 329.51103926 156.59375 326.9375 C154.07074541 324.37444772 151.74937183 321.66404176 149.40625 318.9375 C146.99402191 316.22903337 144.42091903 313.70597355 141.8125 311.1875 C139.91844277 309.23932685 138.13549805 307.25035673 136.35546875 305.19921875 C132.65821423 300.94299682 128.81759292 296.83923672 124.9375 292.75 C115.78915808 283.06868336 106.7632176 273.27947276 97.76831055 263.45581055 C94.39643234 259.77448591 91.01282511 256.10414948 87.625 252.4375 C79.68225939 243.83852521 71.76239529 235.22147826 63.9453125 226.5078125 C61.31420217 223.59321553 58.65847525 220.70210776 56 217.8125 C53.0227736 214.57536909 50.06547034 211.32612144 47.1875 208 C43.56635916 203.82041816 39.80073492 199.77841289 36.03637695 195.72827148 C33.25032898 192.72396775 30.52600439 189.68776665 27.875 186.5625 C18.81241376 176.18649547 9.47537791 170.98978744 -4.375 169.9375 C-8.04266785 169.91860199 -11.70798285 169.99847895 -15.375 170.0625 C-46.20539694 170.43169644 -76.82448075 157.39358084 -99.22705078 136.18408203 C-100.96160285 134.45234047 -102.67203368 132.70025131 -104.375 130.9375 C-105.24769531 130.06867188 -106.12039062 129.19984375 -107.01953125 128.3046875 C-120.15253558 115.10634484 -129.68634706 100.86411174 -137.375 83.9375 C-137.85839844 82.88304687 -138.34179688 81.82859375 -138.83984375 80.7421875 C-148.21985158 58.44684974 -149.81560337 32.42371833 -141.1875 9.6875 C-134.53451452 -5.13232395 -122.87431163 -17.1117713 -107.9453125 -23.5390625 C-70.20926122 -37.6591167 -30.51364328 -23.91978594 0 0 Z " fill="#000000" transform="translate(178.375,76.0625)"/>
<path d="M0 0 C4.68796157 2.91539898 8.82111571 6.40742573 10.29296875 11.90234375 C11.0673778 19.10614884 10.95736669 24.54931603 7.29296875 30.90234375 C5.39906473 33.04681101 3.51818426 35.03794582 1.47631836 37.02783203 C0.89387863 37.60749725 0.3114389 38.18716248 -0.28865051 38.78439331 C-2.20391142 40.68742821 -4.12935957 42.57981198 -6.0546875 44.47265625 C-7.3916224 45.79890815 -8.72774657 47.12597776 -10.06309509 48.4538269 C-13.57254079 51.94053146 -17.09003134 55.41899045 -20.61016846 58.89489746 C-26.24923051 64.46366848 -31.88073005 70.03999545 -37.50317192 75.6255455 C-39.46754543 77.57322362 -41.43822907 79.51435324 -43.40943909 81.45510864 C-44.6131469 82.64835599 -45.81660584 83.84185445 -47.01977539 85.03564453 C-47.84348633 85.84149994 -47.84348633 85.84149994 -48.68383789 86.66363525 C-52.38234525 90.32855881 -52.38234525 90.32855881 -54.70703125 94.90234375 C-54.52885646 98.28766473 -54.35344919 100.88168385 -52.51953125 103.77734375 C-49.86503733 105.42496067 -47.82375638 105.77767474 -44.70703125 105.90234375 C-40.35016694 103.7768295 -37.16900628 100.61983086 -33.81860352 97.19335938 C-32.96877396 96.33673958 -32.96877396 96.33673958 -32.10177612 95.46281433 C-30.87737788 94.2274933 -29.65526637 92.9899024 -28.43521309 91.75028992 C-26.5017906 89.78660806 -24.56168375 87.82976134 -22.61961365 85.87463379 C-17.10100453 80.31635037 -11.59521743 74.74542747 -6.0925293 69.17138672 C-2.72147785 65.75756029 0.65690127 62.3511227 4.0396595 58.94889832 C5.32435079 57.65365998 6.60611994 56.35551633 7.88485527 55.05439758 C9.67481286 53.23315367 11.47388519 51.4213833 13.27514648 49.61132812 C14.05854652 48.80703621 14.05854652 48.80703621 14.85777283 47.98649597 C20.12253242 42.73479276 25.29914658 40.29348203 32.63671875 39.78515625 C38.29425831 40.03475358 43.20220246 41.79037294 47.21875 45.84765625 C50.93586238 50.65594959 52.46408845 54.46559311 52.66796875 60.58984375 C52.71695313 61.58371094 52.7659375 62.57757813 52.81640625 63.6015625 C51.67389588 70.80619876 46.43465927 76.19929882 41.32519531 81.09960938 C40.75061081 81.66338791 40.17602631 82.22716644 39.58403015 82.80802917 C38.34870379 84.0187437 37.11003819 85.22605902 35.86832428 86.43022156 C33.90142104 88.33982927 31.94619588 90.26071314 29.99383545 92.18518066 C24.44621518 97.65071628 18.88320613 103.10027489 13.30126953 108.53076172 C9.876497 111.86419499 6.46909684 115.2145827 3.07189178 118.57609558 C1.77864094 119.84892814 0.4788598 121.11516187 -0.82756805 122.37446594 C-2.65370497 124.13548771 -4.45697867 125.91726068 -6.25683594 127.70507812 C-6.79707901 128.21544113 -7.33732208 128.72580414 -7.89393616 129.25163269 C-11.96619965 133.36778419 -12.65637888 136.3007137 -12.70703125 141.90234375 C-10.25573311 145.57929096 -8.69929377 146.67768054 -4.39453125 147.65234375 C4.66271932 145.81019109 11.74932175 135.5185713 18.08006287 129.06815338 C20.47439647 126.63122428 22.87852644 124.20405413 25.28202057 121.77616501 C29.73967082 117.27303261 34.19322881 112.76602556 38.63037109 108.24267578 C41.7344898 105.07900652 44.85082148 101.92782633 47.97544861 98.7844162 C49.15688248 97.5912906 50.33378342 96.39365767 51.50587463 95.19135284 C53.14670176 93.50927349 54.80271086 91.8436157 56.46289062 90.18066406 C56.93585068 89.68815659 57.40881073 89.19564911 57.89610291 88.68821716 C62.65260213 83.98757739 67.70708981 82.18966363 74.23046875 81.46484375 C79.96758829 81.74662762 85.14821207 83.67233524 89.16015625 87.84375 C93.9224833 94.03021792 95.08108012 99.14871867 94.29296875 106.90234375 C90.54491438 120.40040442 74.05270294 132.32285595 64.5 141.8984375 C63.29742837 143.1052502 63.29742837 143.1052502 62.07056236 144.33644295 C57.82960583 148.59231039 53.58584276 152.84535467 49.33959961 157.09594727 C44.99039542 161.45063159 40.65055073 165.81451866 36.31285572 170.18066311 C32.94187127 173.57040548 29.56406676 176.95329095 26.18445396 180.33442879 C24.58303097 181.93884797 22.98407177 183.54573077 21.3877964 185.15527153 C3.34995773 203.33230504 -12.86544684 218.37695545 -39.70703125 218.90234375 C-44.50226298 218.47995553 -49.21433316 217.7168506 -53.95703125 216.90234375 C-63.28456493 215.13668101 -63.28456493 215.13668101 -72.6640625 215.61328125 C-75.0942247 215.98818539 -76.24856381 216.1358712 -78.45361328 215.01269531 C-80.16656038 213.61947774 -81.64391366 212.14651922 -83.14453125 210.52734375 C-84.26497415 209.40690085 -85.38607392 208.28711446 -86.5078125 207.16796875 C-87.05002441 206.61044922 -87.59223633 206.05292969 -88.15087891 205.47851562 C-90.2909895 203.31087301 -92.55028367 201.29427801 -94.83203125 199.27734375 C-98.34739761 196.12721026 -101.84450164 192.95827735 -105.33203125 189.77734375 C-111.6733547 184.00843878 -118.09416164 178.35796118 -124.70703125 172.90234375 C-124.55105469 172.3196875 -124.39507812 171.73703125 -124.234375 171.13671875 C-122.21469762 162.62999811 -122.72318096 154.80496184 -124.76953125 146.33984375 C-127.88211388 131.56101629 -126.43877241 115.03476239 -119.14453125 101.71484375 C-115.92494232 96.83740679 -112.03181292 92.57938987 -108 88.36621094 C-105.79363292 86.05190446 -103.60418443 83.72345954 -101.42919922 81.37963867 C-92.7724883 72.06119913 -83.92259473 62.96073318 -74.91577148 53.98071289 C-72.7427879 51.81316733 -70.57530762 49.64021875 -68.40820312 47.46679688 C-66.99901896 46.05827248 -65.58952519 44.65005775 -64.1796875 43.2421875 C-63.54619888 42.60667465 -62.91271027 41.9711618 -62.26002502 41.31639099 C-59.14720304 38.21961065 -55.98339453 35.23610157 -52.66064453 32.36474609 C-48.9168289 29.12811818 -45.42890023 25.7069671 -41.9765625 22.1640625 C-40.74963339 20.91964138 -39.52241146 19.6755089 -38.29492188 18.43164062 C-36.3958507 16.5014897 -34.49925605 14.56907662 -32.60766602 12.6315918 C-30.758212 10.73980747 -28.89943241 8.85760476 -27.0390625 6.9765625 C-26.47749954 6.39637863 -25.91593658 5.81619476 -25.33735657 5.21842957 C-18.52032621 -1.64266659 -9.25243207 -3.75170766 0 0 Z " fill="#000000" transform="translate(385.70703125,42.09765625)"/>
<path d="M0 0 C1.1282554 1.1282554 2.25614956 2.25687314 3.3828125 3.38671875 C4.53917449 4.5402876 5.70129744 5.68809309 6.8671875 6.83203125 C10.76007395 10.67190174 14.46077179 14.59878955 18.02734375 18.7421875 C20.43202166 21.49447232 22.90019973 24.18599755 25.375 26.875 C26.32296728 27.90750561 27.27088407 28.94005759 28.21875 29.97265625 C29.98763554 31.89895301 31.75873219 33.82313075 33.53125 35.74609375 C37.70243976 40.31354654 41.54193535 44.86867827 45 50 C44.28714844 50.7734375 43.57429687 51.546875 42.83984375 52.34375 C38.0813478 57.51530405 33.34686101 62.69811721 28.7421875 68.0078125 C26.68499601 70.36020635 24.59403085 72.68034966 22.5 75 C19.81016569 77.98062721 17.13689636 80.97245233 14.5 84 C8.10240067 91.33669648 1.53297021 98.51644443 -5.0559082 105.6809082 C-7.5534312 108.40249494 -10.02055173 111.14418996 -12.4375 113.9375 C-16.48605082 118.60444522 -20.69972597 123.1171033 -24.8984375 127.6484375 C-27.73711141 130.71209609 -30.55765701 133.79171313 -33.375 136.875 C-34.77240546 138.39729795 -36.17071463 139.91876049 -37.56933594 141.43994141 C-38.51759962 142.47396955 -39.4635948 143.51008297 -40.40722656 144.54833984 C-48.35786423 153.29189101 -56.58732389 161.76944995 -64.89086914 170.17697144 C-66.07407133 171.37755828 -67.25385678 172.58152351 -68.42993164 173.78909302 C-80.5199675 186.18568841 -92.90042073 196.25244976 -110.9375 196.5625 C-122.59719999 196.43462331 -131.33162791 192.73758014 -139.80078125 184.609375 C-148.33938667 174.47831208 -149.88297857 163.76534738 -149 151 C-146.34230831 137.61548041 -138.13421285 127.67235252 -129 118 C-128.02285041 116.93532453 -127.04768142 115.86882882 -126.07421875 114.80078125 C-118.41437953 106.40764433 -110.6684604 98.2158232 -102.03125 90.8125 C-99.76361428 88.7890712 -97.6342305 86.66346653 -95.5 84.5 C-92.25743741 81.21896632 -88.92952978 78.14540004 -85.4296875 75.14453125 C-82.05455732 72.16551764 -78.78234907 69.08053736 -75.5 66 C-71.0166181 61.79638464 -66.52183919 57.62733802 -61.86328125 53.6171875 C-59.67071856 51.71420856 -57.52445653 49.76402596 -55.375 47.8125 C-50.74003589 43.62608081 -46.00520856 39.56794498 -41.25024414 35.51953125 C-37.5400836 32.35019427 -33.90409213 29.11676476 -30.3125 25.8125 C-25.96059256 21.81688907 -21.45127212 18.08385968 -16.8515625 14.37890625 C-13.07413424 11.22759966 -9.46955911 7.9069504 -5.88305664 4.54125977 C-2.19681345 1.09840672 -2.19681345 1.09840672 0 0 Z " fill="#000000" transform="translate(198,275)"/>
</svg>
