<?xml version="1.0" encoding="UTF-8"?>
<svg version="1.1" xmlns="http://www.w3.org/2000/svg" width="512" height="513">
<path d="M0 0 C0.6653852 -0.00235223 1.33077041 -0.00470446 2.0163188 -0.00712797 C4.261844 -0.01382266 6.50731141 -0.01335961 8.75284576 -0.01294994 C10.37276755 -0.01624829 11.99268852 -0.0199738 13.61260843 -0.02409142 C18.07681495 -0.03412313 22.54100803 -0.03783011 27.00522423 -0.04048073 C31.8152486 -0.0443804 36.62526228 -0.05395907 41.43527985 -0.0626936 C53.05895093 -0.08246915 64.6826229 -0.0925263 76.3063066 -0.10142139 C81.77899085 -0.10580312 87.25167412 -0.11117029 92.7243576 -0.11641026 C110.91572366 -0.13342479 129.10708912 -0.14791863 147.29846191 -0.155159 C152.02076468 -0.15706892 156.74306743 -0.15898925 161.46537018 -0.16094494 C162.63909048 -0.16142868 163.81281078 -0.16191242 165.02209836 -0.16241082 C184.03256087 -0.17070982 203.04296043 -0.19604355 222.05339545 -0.22852562 C241.56772896 -0.26159695 261.08203048 -0.27960789 280.59639215 -0.28280324 C291.55423795 -0.28496843 302.51199199 -0.29371829 313.46981049 -0.31926441 C322.80299125 -0.34097252 332.13605797 -0.34902131 341.46926111 -0.33929763 C346.2301103 -0.33475307 350.99072422 -0.33664826 355.75154114 -0.35605907 C360.11419484 -0.37369257 364.47644166 -0.37269152 368.83909971 -0.35716178 C370.41322451 -0.35478598 371.9873775 -0.35910787 373.56145924 -0.37099043 C387.30032063 -0.46823796 398.81567911 2.15715752 409.19583893 11.57172108 C409.95896393 12.41734608 410.72208893 13.26297108 411.50833893 14.13422108 C412.35396393 15.06234608 413.19958893 15.99047108 414.07083893 16.94672108 C421.83850409 26.44867626 423.63047626 37.85094513 423.63697338 49.78772926 C423.63872642 50.51797677 423.64047946 51.24822427 423.64228562 52.00060049 C423.64692103 54.43666491 423.64448649 56.87266901 423.6420517 59.30873585 C423.6439209 61.07734052 423.64622205 62.84594478 423.64891702 64.61454839 C423.65502778 69.46651672 423.65490228 74.31846782 423.65372264 79.17043912 C423.65351846 84.40641601 423.6590391 89.64238739 423.66378021 94.8783617 C423.6720832 105.13333153 423.67483489 115.3882956 423.67539259 125.6432685 C423.67586789 133.97917857 423.67792332 142.31508674 423.68109322 150.65099621 C423.68989859 174.28780937 423.69451274 197.924618 423.69376274 221.56143282 C423.69370281 223.47244469 423.69370281 223.47244469 423.69364166 225.42206287 C423.69360078 226.69762718 423.6935599 227.97319149 423.69351778 229.28740927 C423.69311127 249.96266214 423.70268229 270.63789681 423.71678003 291.31314442 C423.73114319 312.5452551 423.73805026 333.77735689 423.73718625 355.00947255 C423.73685428 366.9285434 423.73960165 378.84759517 423.7503643 390.76666164 C423.75946847 400.91400022 423.7616452 411.06131105 423.75485488 421.20865194 C423.75158936 426.38464577 423.75153423 431.56058636 423.76020813 436.73657513 C423.76807245 441.47826444 423.76664235 446.21985827 423.757924 450.96154525 C423.75638888 452.6734694 423.75820562 454.38540067 423.76378407 456.09731642 C423.8132238 472.35067758 422.71859433 487.19684025 411.13333893 499.69672108 C410.26708893 500.50109608 409.40083893 501.30547108 408.50833893 502.13422108 C407.64208893 502.95922108 406.77583893 503.78422108 405.88333893 504.63422108 C398.72556997 510.52446845 389.99707875 513.25475477 380.89083672 513.26844215 C379.89057875 513.2719705 379.89057875 513.2719705 378.87011355 513.27557012 C376.62567555 513.28225066 374.38129556 513.28180219 372.13684845 513.2813921 C370.51535092 513.28469131 368.8938542 513.288417 367.27235854 513.29253358 C362.80848075 513.30255514 358.34461641 513.30627062 353.88072896 513.30892289 C349.06937796 513.31282546 344.25803762 513.32240382 339.44669342 513.33113575 C327.82344534 513.35090124 316.20019639 513.36096637 304.57693571 513.36986354 C299.10412472 513.37424621 293.63131471 513.37961306 288.15850449 513.38485241 C269.96709583 513.40186459 251.77568778 513.41635904 233.58427238 513.42360115 C228.86316044 513.42551106 224.14204851 513.42743139 219.42093658 513.42938709 C218.24751947 513.42987083 217.07410237 513.43035457 215.86512716 513.43085297 C196.85405268 513.43915432 177.84304111 513.46449306 158.8319941 513.49696777 C139.31650375 513.53003257 119.80104538 513.54804938 100.28552687 513.55124539 C89.32716892 513.553411 78.36890271 513.56216711 67.41057205 513.58770657 C58.07848488 513.6094056 48.74651171 513.61746787 39.41440217 513.60773978 C34.65366994 513.60319283 29.893173 513.60510439 25.13247299 513.62450123 C20.771145 513.64211729 16.4102242 513.64114784 12.04889198 513.62560394 C10.47414192 513.6232255 8.89936378 513.62756366 7.32465665 513.63943259 C-5.22151484 513.72811134 -14.17949092 511.29480664 -24.49166107 504.13422108 C-25.35791107 503.53609608 -26.22416107 502.93797108 -27.11666107 502.32172108 C-35.54889838 494.55518671 -40.15606123 484.45112687 -41.49166107 473.13422108 C-41.57974921 470.6034829 -41.61893101 468.07076832 -41.62029552 465.53849792 C-41.62204856 464.80235117 -41.6238016 464.06620442 -41.62560776 463.3077502 C-41.63025279 460.84560653 -41.62780612 458.38352231 -41.62537384 455.92137623 C-41.62724256 454.13642272 -41.62954351 452.35146962 -41.63223916 450.56651717 C-41.63835594 445.66475263 -41.63822371 440.76300514 -41.63704479 435.86123765 C-41.63684075 430.57345544 -41.6423598 425.28567871 -41.64710236 419.99789906 C-41.65540869 409.63952114 -41.65815719 399.28114892 -41.65871473 388.92276796 C-41.65918988 380.5033967 -41.66124457 372.08402731 -41.66441536 363.66465664 C-41.67322172 339.79551956 -41.67783474 315.92638697 -41.67708489 292.05724826 C-41.67704493 290.77046423 -41.67700497 289.4836802 -41.67696381 288.15790272 C-41.67692293 286.86954814 -41.67688204 285.58119356 -41.67683993 284.25379793 C-41.67643341 263.37087714 -41.68600431 242.48797438 -41.70010217 221.60505881 C-41.7144627 200.16393234 -41.72137254 178.72281467 -41.7205084 157.28168327 C-41.72017633 145.2435809 -41.72292788 133.20549744 -41.73368645 121.16739941 C-41.74278717 110.91863217 -41.74497019 100.6698924 -41.73817702 90.42112287 C-41.73490973 85.19260316 -41.73486276 79.96413617 -41.74353027 74.73562145 C-41.75138679 69.94706749 -41.74997247 65.15860812 -41.74124614 60.37005649 C-41.7397093 58.63995078 -41.74153426 56.90983805 -41.74710622 55.17974063 C-41.79441649 39.44474167 -40.51040619 24.78172562 -29.17916107 12.65375233 C-21.12911841 5.40498706 -10.89770251 0.01638233 0 0 Z M-7.80416107 35.69672108 C-20.60968356 54.1935869 -10.49166107 80.63721124 -10.49166107 103.13422108 C122.49833893 103.13422108 255.48833893 103.13422108 392.50833893 103.13422108 C396.08168978 67.9365654 396.08168978 67.9365654 389.50833893 35.13422108 C384.81082275 30.78901862 381.49142455 30.00958873 375.20573711 30.00279331 C374.23833562 29.99971436 374.23833562 29.99971436 373.25139067 29.99657321 C371.07548041 29.99088794 368.89963314 29.99236233 366.72371674 29.99377918 C365.15385404 29.99119642 363.58399201 29.98818351 362.01413089 29.98477578 C357.68848971 29.97669209 353.3628651 29.97491545 349.03721726 29.97417831 C344.37657545 29.97233015 339.7159423 29.96478404 335.05530548 29.9580431 C324.85912563 29.94444977 314.66294971 29.93843357 304.4667623 29.93403244 C298.10317193 29.93127184 291.73958308 29.92703484 285.37599373 29.92252827 C267.76537134 29.91033455 250.15475017 29.90003527 232.54412365 29.89665318 C231.4165785 29.89643361 230.28903335 29.89621404 229.12732016 29.89598782 C227.99704203 29.89576955 226.8667639 29.89555127 225.70223492 29.89532638 C223.41177285 29.89488291 221.12131077 29.89443634 218.83084869 29.8939867 C217.69469483 29.89376527 216.55854097 29.89354384 215.38795821 29.8933157 C196.97228344 29.88936648 178.55664822 29.87190914 160.14098873 29.84862718 C141.24479584 29.82493005 122.34862281 29.81245208 103.45241481 29.81128526 C92.83847801 29.8103676 82.22459273 29.80459249 71.61067009 29.78646564 C62.57380016 29.77108679 53.53699767 29.76593109 44.50011715 29.77420375 C39.88777025 29.77811805 35.27555927 29.7771427 30.66322899 29.7631464 C26.44214034 29.75045424 22.22129037 29.75156356 18.00020228 29.76373711 C16.47192925 29.76570226 14.94363959 29.76257811 13.41538998 29.75389275 C11.33945732 29.74284033 9.26437302 29.75025929 7.18846416 29.76228428 C6.03498114 29.76168719 4.88149811 29.7610901 3.69306105 29.76047492 C-1.25284025 30.34090597 -4.48154314 32.01490121 -7.80416107 35.69672108 Z M-10.49166107 134.13422108 C-10.57416107 189.94547108 -10.65666107 245.75672108 -10.74166107 303.25922108 C-10.77807709 320.90278065 -10.8144931 338.54634022 -10.85201263 356.72455311 C-10.86538769 372.49565445 -10.86538769 372.49565445 -10.87343597 388.26675892 C-10.87717307 395.30904929 -10.89187495 402.35121339 -10.91396332 409.3934679 C-10.93938691 417.51103483 -10.95101373 425.62848024 -10.94544087 433.74608731 C-10.94302639 437.90050974 -10.94691079 442.05466041 -10.9685216 446.20903325 C-10.98793814 449.96433602 -10.98898712 453.71917399 -10.9752655 457.4744978 C-10.97275993 459.47833298 -10.99004272 461.48216257 -11.00798416 463.485919 C-10.97806444 472.11802221 -10.97806444 472.11802221 -6.49166107 479.13422108 C-2.24658429 482.8647431 1.26849026 483.25984479 6.80814743 483.26844215 C7.45278216 483.27079438 8.09741689 483.27314661 8.76158601 483.27557012 C10.93648476 483.28226338 13.1113238 483.28180181 15.28623199 483.2813921 C16.85538218 483.28469051 18.42453151 483.28841603 19.99367976 483.29253358 C24.31738832 483.30256411 28.641083 483.30627206 32.96480155 483.30892289 C37.62341895 483.31282278 42.28202531 483.32240128 46.94063568 483.33113575 C58.19646597 483.3509083 69.45229717 483.36096703 80.70814049 483.36986354 C86.00600946 483.37424484 91.30387743 483.37961203 96.60174561 483.38485241 C114.20807564 483.4018649 131.81440504 483.41635998 149.42074203 483.42360115 C153.99079387 483.42551111 158.5608457 483.42743143 163.13089752 483.42938709 C164.26678907 483.42987083 165.40268062 483.43035457 166.57299313 483.43085297 C184.98153862 483.43915666 203.3900192 483.46449922 221.79853633 483.49696777 C240.68908372 483.53001549 259.57959809 483.54804781 278.47017455 483.55124539 C289.08024987 483.55341253 299.69023052 483.562191 310.30027771 483.58770657 C319.33456979 483.60938226 328.3687442 483.6174794 337.40305933 483.60773978 C342.01354604 483.60318609 346.6237898 483.60514328 351.23424339 483.62450123 C355.4548269 483.64206941 359.67498909 483.64118707 363.89557669 483.62560394 C365.42252445 483.62321819 366.94950091 483.62760136 368.4764047 483.63943259 C379.18393121 483.84324674 379.18393121 483.84324674 388.50833893 479.13422108 C392.11387003 475.16813686 392.63332788 471.72938444 392.63138676 466.48640633 C392.63337763 465.3026737 392.6353685 464.11894108 392.6374197 462.89933777 C392.63450704 461.59330754 392.63159437 460.28727732 392.62859344 458.94167042 C392.62903071 457.54827829 392.62990734 456.15488624 392.63118744 454.76149464 C392.6334371 450.91612634 392.62940786 447.07078574 392.62441166 443.22542097 C392.6200566 439.02118884 392.6215055 434.81695807 392.62222958 430.6127243 C392.62276207 422.44513458 392.61813667 414.27755582 392.61172825 406.10996891 C392.60453961 396.66602551 392.60373412 387.22208872 392.60294342 377.77814198 C392.59768907 352.83433327 392.58372802 327.89052701 392.57083893 302.94672108 C392.55021393 247.23859608 392.52958893 191.53047108 392.50833893 134.13422108 C259.51833893 134.13422108 126.52833893 134.13422108 -10.49166107 134.13422108 Z " fill="#000000" transform="translate(65.49166107177734,-0.13422107696533203)"/>
<path d="M0 0 C1.26706787 0.00563965 2.53413574 0.0112793 3.83959961 0.01708984 C13.7541024 0.1448068 23.12922075 0.91000341 32.75 3.3125 C33.55195801 3.51117676 34.35391602 3.70985352 35.18017578 3.91455078 C47.16222185 6.98657527 57.94998827 11.32048683 68.75 17.3125 C69.80574219 17.87839844 70.86148438 18.44429687 71.94921875 19.02734375 C85.86372359 26.75762422 98.57242159 37.08646831 108.75 49.3125 C109.4615625 50.13621094 110.173125 50.95992187 110.90625 51.80859375 C135.64295269 80.99282004 146.23454675 118.80860273 143.4765625 156.62109375 C140.35213762 190.8486644 125.38389 220.78066585 101.75 245.3125 C101.10804688 246.01761719 100.46609375 246.72273437 99.8046875 247.44921875 C75.59745812 273.28074275 38.40930473 285.97595943 3.7890625 287.4375 C-34.83765512 288.21587214 -71.41286255 274.02975261 -99.25 247.3125 C-100.93615782 245.66555515 -102.60570171 244.00123879 -104.25 242.3125 C-104.73339844 241.88582031 -105.21679688 241.45914063 -105.71484375 241.01953125 C-121.52144652 226.55184071 -132.64784771 203.69479874 -138.25 183.3125 C-138.54261719 182.30316406 -138.83523437 181.29382813 -139.13671875 180.25390625 C-148.68457593 145.1829967 -143.70839751 106.0945217 -126.25 74.3125 C-121.34200515 65.75435988 -115.66788726 57.80829496 -109.25 50.3125 C-108.54101562 49.48105469 -107.83203125 48.64960938 -107.1015625 47.79296875 C-80.11972584 16.97687109 -40.84273409 -0.19266739 0 0 Z M-83.51953125 67.2734375 C-96.82808987 81.72218901 -107.42077875 100.74620147 -110.25 120.3125 C-109.61578125 120.54582031 -108.9815625 120.77914062 -108.328125 121.01953125 C-100.32744883 124.14686738 -93.01671239 128.09824235 -85.63378906 132.4777832 C-75.328458 138.39422426 -64.13485958 139.93122833 -52.5703125 137.0703125 C-46.76448814 135.17413417 -41.50219797 132.1854186 -36.4375 128.8125 C-21.03393143 118.96788057 -2.41007775 117.42504003 15.25 120.3125 C23.81937992 122.21780997 31.10656916 126.14719187 38.75 130.3125 C51.79382941 137.24393028 62.62718232 140.50844007 77.24609375 136.625 C82.49930712 134.65724115 87.23020345 131.89673336 92.07543945 129.09082031 C98.12937761 125.59015169 104.18643212 122.75775078 110.75 120.3125 C105.77556379 99.41986793 96.95851996 82.39664737 82.75 66.3125 C82.15058594 65.62929687 81.55117188 64.94609375 80.93359375 64.2421875 C70.51579217 53.12686573 57.4930098 45.54049475 43.75 39.3125 C42.89277344 38.90386719 42.03554688 38.49523437 41.15234375 38.07421875 C-1.73642721 19.02071673 -52.06307504 35.06273622 -83.51953125 67.2734375 Z M-29.95703125 159.4140625 C-40.99594459 165.77813354 -50.87253934 167.66347775 -63.5625 167.625 C-64.61373047 167.64111328 -65.66496094 167.65722656 -66.74804688 167.67382812 C-77.50201578 167.68043782 -87.03656841 165.48642138 -96.5 160.375 C-97.14195312 160.04048828 -97.78390625 159.70597656 -98.4453125 159.36132812 C-99.72697034 158.6934763 -101.00634038 158.02121273 -102.28320312 157.34423828 C-105.57960884 155.61501652 -108.91621146 153.96828164 -112.25 152.3125 C-111.13217141 182.32619754 -96.17888796 208.32364794 -74.875 228.625 C-50.34789661 250.05986113 -19.35998966 258.30876917 12.75 256.3125 C35.39901144 253.89329713 56.56735873 244.14483544 73.75 229.3125 C74.595625 228.65121094 75.44125 227.98992187 76.3125 227.30859375 C79.92639913 224.34913468 82.76024266 220.88532205 85.75 217.3125 C86.39195312 216.57 87.03390625 215.8275 87.6953125 215.0625 C93.35046579 208.32067019 97.64922528 201.05447986 101.75 193.3125 C102.224375 192.43078125 102.69875 191.5490625 103.1875 190.640625 C108.93045566 179.08292674 112.43119758 165.20950715 112.75 152.3125 C111.26015624 153.05742188 109.7703572 153.80243333 108.28076172 154.54785156 C106.9993133 155.18808329 105.71707171 155.82672967 104.43408203 156.46386719 C101.60679018 157.87007846 98.79608118 159.28768199 96.015625 160.78515625 C85.84317571 166.22043553 75.69416917 167.81544723 64.25 167.6875 C63.21230469 167.69910156 62.17460937 167.71070313 61.10546875 167.72265625 C50.55095996 167.68322471 41.04028975 165.52417896 31.75 160.5 C30.39195283 159.7942213 29.03387963 159.08849266 27.67578125 158.3828125 C27.01787598 158.03508789 26.3599707 157.68736328 25.68212891 157.32910156 C22.78627673 155.80543105 19.86358171 154.33980995 16.9375 152.875 C16.00292969 152.40191406 15.06835938 151.92882812 14.10546875 151.44140625 C-1.07727829 144.16476629 -16.81009759 151.69146435 -29.95703125 159.4140625 Z " fill="#000000" transform="translate(256.25,164.6875)"/>
<path d="M0 0 C0.73003235 -0.00570007 1.4600647 -0.01140015 2.21221924 -0.01727295 C3.75539715 -0.0267009 5.29859499 -0.03324815 6.84179688 -0.03710938 C9.18135542 -0.04678497 11.52002349 -0.07781545 13.859375 -0.109375 C15.36457816 -0.11590908 16.86978756 -0.12115796 18.375 -0.125 C19.06487 -0.1373468 19.75473999 -0.1496936 20.46551514 -0.16241455 C25.80213297 -0.13840984 29.64731786 1.04791029 34.453125 3.203125 C38.34159228 7.19129656 39.60516113 10.517626 39.765625 16.015625 C39.6948089 20.88069073 38.84963189 23.54534835 35.453125 27.203125 C30.11550711 30.84698335 26.35347459 31.80360533 19.95703125 31.734375 C19.16465561 31.7382019 18.37227997 31.74202881 17.55589294 31.74597168 C15.88938111 31.74867894 14.22282592 31.74140122 12.55639648 31.72460938 C10.02555152 31.70320894 7.49755385 31.72443432 4.96679688 31.75 C3.33853548 31.74735595 1.71027584 31.74222938 0.08203125 31.734375 C-0.66404892 31.74247192 -1.41012909 31.75056885 -2.17881775 31.75891113 C-7.69924504 31.66190998 -11.90221689 30.21027531 -16.546875 27.203125 C-19.52437681 23.79725619 -20.44970069 20.00828358 -20.984375 15.578125 C-20.30381668 10.32810366 -18.55384232 6.87573663 -14.609375 3.390625 C-9.83457874 -0.01994376 -5.74608123 0.03498754 0 0 Z " fill="#000000" transform="translate(330.546875,50.796875)"/>
<path d="M0 0 C1.09860603 -0.00855011 1.09860603 -0.00855011 2.21940613 -0.01727295 C3.76678025 -0.02669981 5.31417424 -0.03324772 6.86157227 -0.03710938 C9.21211345 -0.04679933 11.56177373 -0.07783679 13.91210938 -0.109375 C15.42056776 -0.1159076 16.92903236 -0.12115706 18.4375 -0.125 C19.13253128 -0.1373468 19.82756256 -0.1496936 20.5436554 -0.16241455 C26.9682319 -0.13351935 31.4231073 1.46846287 36.29296875 5.703125 C39.62688636 9.62538101 39.70485319 12.99108967 39.6328125 17.921875 C39.19206488 22.60181333 37.30141401 25.38593814 33.91796875 28.515625 C29.50929771 31.49147795 25.44976286 31.39204217 20.3125 31.44140625 C19.51446457 31.449478 18.71642914 31.45754974 17.89421082 31.46586609 C16.20382855 31.47969252 14.51341854 31.49042112 12.82299805 31.49829102 C11.10351314 31.50978771 9.38406327 31.53020292 7.66479492 31.55981445 C5.17211813 31.60273789 2.6805017 31.61869563 0.1875 31.62890625 C-0.57112839 31.64641434 -1.32975677 31.66392242 -2.1113739 31.68196106 C-7.69688817 31.65959113 -11.89009286 30.26110276 -16.58203125 27.203125 C-19.55953306 23.79725619 -20.48485694 20.00828358 -21.01953125 15.578125 C-20.33897293 10.32810366 -18.58899857 6.87573663 -14.64453125 3.390625 C-9.86036741 -0.02663489 -5.75740223 0.03489961 0 0 Z " fill="#000000" transform="translate(409.58203125,50.796875)"/>
</svg>
