<?xml version="1.0" encoding="UTF-8"?>
<svg version="1.1" xmlns="http://www.w3.org/2000/svg" width="512" height="512">
<path d="M0 0 C3.39526497 0.01611213 6.78934029 0.0000094 10.18457031 -0.01904297 C43.94515884 -0.05092782 81.66105654 1.71276406 107.08300781 26.51611328 C135.11937129 54.95483322 134.46888753 100.66147572 134.59863281 138.21142578 C134.60561521 139.59187854 134.61265614 140.97233101 134.61975098 142.3527832 C134.63902109 146.74056399 134.64392677 151.12829479 134.64550781 155.51611328 C134.64639153 156.63652134 134.64639153 156.63652134 134.64729309 157.7795639 C134.66027279 181.09086264 134.32415213 204.23182337 131.39550781 227.39111328 C131.24033691 228.62345703 131.08516602 229.85580078 130.92529297 231.12548828 C128.22636996 251.63840365 123.29404011 268.52981116 109.39550781 284.39111328 C108.80253906 285.07947266 108.20957031 285.76783203 107.59863281 286.47705078 C96.96911969 297.96964403 82.28176075 305.33650113 67.01269531 308.02392578 C66.27720459 308.15742432 65.54171387 308.29092285 64.78393555 308.4284668 C62.98857618 308.75370249 61.19214683 309.07302244 59.39550781 309.39111328 C59.38742096 308.19222977 59.37933411 306.99334625 59.3710022 305.75813293 C59.29325043 294.41594333 59.20543973 283.07386942 59.10798073 271.73183155 C59.05820355 265.90189265 59.01187292 260.07197026 58.97363281 254.24194336 C58.93654404 248.60732373 58.89012243 242.97284879 58.83744431 237.33835411 C58.81902494 235.19719692 58.80387193 233.05600886 58.79216385 230.91480446 C58.66668838 208.74499141 57.16713267 190.65640678 41.59472656 173.39501953 C30.5167609 162.74404184 15.39295658 158.55289806 0.39550781 158.39111328 C-14.60329442 159.39475061 -27.97408234 166.21956229 -38.35449219 177.01611328 C-49.00267792 189.97354411 -51.70415845 205.18061755 -51.80981445 221.40893555 C-51.81971405 222.3660997 -51.82961365 223.32326385 -51.83981323 224.30943298 C-51.87115157 227.44210419 -51.89607511 230.57479051 -51.92089844 233.70751953 C-51.94149192 235.8918444 -51.96248899 238.0761655 -51.98387146 240.26048279 C-52.038845 245.98634776 -52.08836246 251.71224722 -52.13671875 257.43817139 C-52.18711518 263.2903548 -52.24270619 269.14248866 -52.29785156 274.99462891 C-52.40513044 286.46008128 -52.5066416 297.92557684 -52.60449219 309.39111328 C-55.14095705 308.94453527 -57.67566262 308.49032162 -60.20996094 308.03173828 C-60.92019409 307.90750488 -61.63042725 307.78327148 -62.36218262 307.65527344 C-77.90115319 304.81783867 -90.48620804 296.31836162 -101.60449219 285.39111328 C-102.54421875 284.47072266 -102.54421875 284.47072266 -103.50292969 283.53173828 C-114.14945626 272.25894544 -120.4973467 257.25290212 -122.66699219 242.07861328 C-122.8290918 240.94931396 -122.99119141 239.82001465 -123.15820312 238.65649414 C-123.67159046 234.90468168 -124.14525143 231.149925 -124.60449219 227.39111328 C-124.83531494 225.54018066 -124.83531494 225.54018066 -125.07080078 223.65185547 C-130.35907846 178.79582662 -129.87172923 131.21536252 -124.60449219 86.39111328 C-124.37367919 84.20234747 -124.14319051 82.01354743 -123.91308594 79.82470703 C-121.51832162 58.55254588 -114.76689878 42.0247464 -99.60449219 26.39111328 C-99.0540625 25.76720703 -98.50363281 25.14330078 -97.93652344 24.50048828 C-75.08720153 -0.54913869 -31.05508737 -0.17426596 0 0 Z M-92.19482422 60.15722656 C-93.90304961 62.86423423 -94.09450445 64.67675824 -94.28417969 67.85986328 C-94.34831055 68.92205078 -94.41244141 69.98423828 -94.47851562 71.07861328 C-94.6790726 76.35217334 -94.74915842 81.61400629 -94.72949219 86.89111328 C-94.73335937 87.92880859 -94.73722656 88.96650391 -94.74121094 90.03564453 C-95.47598215 103.11094392 -95.47598215 103.11094392 -91.54199219 115.01611328 C-85.0556753 120.26036949 -78.59560143 119.53419765 -70.65527344 118.97314453 C-67.20930987 118.31571998 -65.31810127 117.62394665 -62.60449219 115.39111328 C-59.53542175 109.69696676 -59.16203379 104.94448273 -59.20605469 98.54736328 C-59.20174942 97.15547791 -59.20174942 97.15547791 -59.19735718 95.73547363 C-59.19532442 93.7823017 -59.20079886 91.82910904 -59.21337891 89.87597656 C-59.22944375 86.90008677 -59.21350325 83.92555499 -59.19433594 80.94970703 C-59.19631851 79.04475614 -59.20016247 77.13980609 -59.20605469 75.23486328 C-59.19998199 74.35237915 -59.1939093 73.46989502 -59.18765259 72.56066895 C-59.24942525 67.08809826 -60.0103012 63.23838238 -62.60449219 58.39111328 C-66.76985214 54.63922656 -71.28382567 54.93837627 -76.60449219 55.01611328 C-77.39855469 55.00451172 -78.19261719 54.99291016 -79.01074219 54.98095703 C-84.64948192 55.00915073 -88.27294319 55.80185546 -92.19482422 60.15722656 Z M69.39550781 58.39111328 C66.34180746 64.09697974 65.95300633 68.83148206 65.99707031 75.23486328 C65.99420013 76.16278687 65.99132996 77.09071045 65.9883728 78.04675293 C65.98634005 79.99992486 65.99181449 81.95311752 66.00439453 83.90625 C66.02045937 86.88213979 66.00451887 89.85667158 65.98535156 92.83251953 C65.98733413 94.73747042 65.9911781 96.64242047 65.99707031 98.54736328 C65.99099762 99.42984741 65.98492493 100.31233154 65.97866821 101.22155762 C66.04039388 106.68996508 66.7805498 110.55599693 69.39550781 115.39111328 C75.27204449 120.03048434 82.34422491 119.9596156 89.51269531 119.15283203 C93.77547937 118.35657614 96.89157932 117.06700482 99.49707031 113.35986328 C101.5209133 108.92500735 101.3468879 104.18179489 101.39550781 99.39111328 C101.41605225 98.05258301 101.41605225 98.05258301 101.43701172 96.68701172 C103.04888406 76.66742349 103.04888406 76.66742349 97.39550781 58.39111328 C93.06200271 54.74268436 88.7944525 54.9372326 83.39550781 55.01611328 C82.60144531 55.00451172 81.80738281 54.99291016 80.98925781 54.98095703 C76.37457943 55.00403042 72.96908864 55.17226291 69.39550781 58.39111328 Z " fill="#000000" transform="translate(252.6044921875,118.60888671875)"/>
<path d="M0 0 C8.09601618 6.69562419 13.41374863 14.36778434 15.16796875 24.79296875 C15.26342247 26.94128066 15.30701803 29.09216811 15.31513977 31.24258423 C15.32229507 32.54616882 15.32945038 33.84975342 15.33682251 35.19284058 C15.33966246 36.63067603 15.34237423 38.06851174 15.3449707 39.50634766 C15.35123983 41.0261653 15.35788703 42.54598143 15.36488342 44.0657959 C15.38587532 49.05036359 15.39628226 54.03493142 15.40625 59.01953125 C15.41029958 60.73949575 15.41441656 62.4594601 15.41860008 64.17942429 C15.43764221 72.2626836 15.45187447 80.34593384 15.46021205 88.42921126 C15.46997669 97.74076195 15.49628005 107.05207444 15.53671294 116.36354125 C15.5669377 123.57309814 15.581687 130.78258699 15.58499306 137.99220598 C15.58733656 142.29231183 15.59620508 146.59216293 15.62145424 150.89220047 C15.64485128 154.94213235 15.64892193 158.99164384 15.63869286 163.04162598 C15.63820017 164.52057677 15.64444089 165.9995491 15.6582489 167.47843552 C15.77047643 180.22067762 13.66165554 190.57776121 4.91796875 200.29296875 C-5.64069544 209.89175438 -14.28084087 212.59430166 -28.4453125 212.13671875 C-38.14151228 211.55623213 -45.94812913 207.58275502 -52.83203125 200.79296875 C-61.77054839 190.23833579 -63.42995456 178.82079483 -63.33374023 165.38256836 C-63.3375313 163.86023969 -63.34303779 162.33791448 -63.35011292 160.81559753 C-63.36398114 156.71225351 -63.35295963 152.60933285 -63.3364017 148.50601268 C-63.32246622 144.19456262 -63.3290208 139.88313504 -63.33253479 135.57167053 C-63.33522995 128.33506515 -63.32182032 121.09862629 -63.29858398 113.86206055 C-63.27196856 105.51577556 -63.27023295 97.16976865 -63.28197235 88.82345575 C-63.29277996 80.76687143 -63.28654035 72.71038692 -63.27241707 64.6538105 C-63.2666841 61.2373879 -63.26671862 57.821039 -63.27148247 54.4046154 C-63.27628177 50.37677185 -63.26602943 46.34922985 -63.24452782 42.32144356 C-63.23900013 40.85015505 -63.23845735 39.37883732 -63.24348068 37.907547 C-63.28425477 24.24401777 -61.32517466 13.73767636 -51.7578125 3.59375 C-37.5364686 -9.83338273 -16.05287827 -11.50693044 0 0 Z " fill="#000000" transform="translate(279.83203125,300.20703125)"/>
<path d="M0 0 C5.22018933 3.73115172 10.06678216 7.86958098 14.0078125 12.953125 C17.60178861 17.11457102 21.90968317 19.70664711 27.3828125 20.703125 C29.73936819 20.80601512 32.09832328 20.85798211 34.45703125 20.87890625 C35.86134287 20.90211947 37.26563977 20.9262374 38.66992188 20.95117188 C40.86394919 20.98611406 43.05743867 21.01554575 45.25170898 21.02905273 C62.00756431 21.15213225 62.00756431 21.15213225 68.3828125 25.703125 C69.40572796 27.04910116 70.40069303 28.4166366 71.37133789 29.80078125 C74.38837907 33.31530675 76.34685301 34.2972966 80.96337891 34.65551758 C83.13703545 34.67577463 85.3113601 34.65421894 87.484375 34.59765625 C88.63900238 34.60141769 89.79362976 34.60517914 90.98324585 34.60905457 C94.65931819 34.6153466 98.33215279 34.56834765 102.0078125 34.515625 C105.68995258 34.48941332 109.37156875 34.47458599 113.05380249 34.47575378 C115.34101813 34.47372556 117.62829894 34.45445665 119.91519165 34.41596985 C120.95332001 34.40994247 121.99144836 34.4039151 123.06103516 34.39770508 C124.42501938 34.37816521 124.42501938 34.37816521 125.81655884 34.35823059 C128.98154319 34.78359205 130.81278331 35.83264587 133.3828125 37.703125 C136.20649821 41.93865356 136.04935007 45.72789814 135.3828125 50.703125 C133.58634396 53.63735695 132.4387054 55.17517855 129.3828125 56.703125 C127.65674797 56.79374356 125.92716743 56.82067001 124.19873047 56.81665039 C123.11776093 56.81657486 122.03679138 56.81649933 120.92306519 56.81642151 C119.16677292 56.80867958 119.16677292 56.80867958 117.375 56.80078125 C116.17924347 56.7993663 114.98348694 56.79795135 113.75149536 56.79649353 C109.92024263 56.79088163 106.08904766 56.77832708 102.2578125 56.765625 C99.66536543 56.76061153 97.07291744 56.75604836 94.48046875 56.75195312 C88.11456352 56.74090833 81.74869213 56.72415859 75.3828125 56.703125 C75.09003418 57.49243408 74.79725586 58.28174316 74.49560547 59.0949707 C73.23382586 62.05231857 72.10712762 63.06129568 69.5078125 64.890625 C68.49074219 65.62345703 68.49074219 65.62345703 67.453125 66.37109375 C62.94588135 69.2710373 59.94329445 69.96382688 54.4921875 70.046875 C53.82874329 70.0614978 53.16529907 70.07612061 52.48175049 70.09118652 C50.36549896 70.13752553 48.24933588 70.17177981 46.1328125 70.203125 C29.19186432 70.23676233 29.19186432 70.23676233 14.3828125 77.703125 C12.52494826 79.64507361 10.80255578 81.66184548 9.078125 83.72265625 C-0.24783649 94.61727025 -13.55013592 99.50628765 -27.54296875 101.01953125 C-42.0476244 101.62798095 -56.58249582 96.91519047 -67.40234375 87.203125 C-69.87392857 84.75702044 -72.25257573 82.2521519 -74.6171875 79.703125 C-80.79700581 73.30061053 -86.06890519 70.88450187 -94.98535156 70.59301758 C-96.79084473 70.59531372 -96.79084473 70.59531372 -98.6328125 70.59765625 C-99.98048471 70.58419525 -101.32814205 70.5691712 -102.67578125 70.55273438 C-104.7669691 70.53000938 -106.85646025 70.5155608 -108.94775391 70.52807617 C-118.18373577 70.56849861 -125.25879864 69.74704062 -132.6171875 63.703125 C-136.6171875 59.51264881 -136.6171875 59.51264881 -136.6171875 56.703125 C-137.28260056 56.71200745 -137.94801361 56.72088989 -138.6335907 56.7300415 C-145.56024586 56.8185469 -152.48674034 56.87887291 -159.41381836 56.92285156 C-161.99884567 56.94296472 -164.5838275 56.97025886 -167.16870117 57.00488281 C-170.88471705 57.05341154 -174.60013128 57.07609735 -178.31640625 57.09375 C-179.47178391 57.11439514 -180.62716156 57.13504028 -181.81755066 57.15631104 C-189.84839877 57.15855608 -189.84839877 57.15855608 -193.82348633 54.80371094 C-197.03737499 51.03995729 -197.00443613 48.00963818 -196.9765625 43.1875 C-196.6171875 40.703125 -196.6171875 40.703125 -194.2421875 37.640625 C-190.65094452 34.98994566 -189.03155494 34.58355699 -184.63598633 34.62475586 C-183.0784539 34.63357033 -183.0784539 34.63357033 -181.48945618 34.64256287 C-180.36242783 34.65094681 -179.23539948 34.65933075 -178.07421875 34.66796875 C-175.6972613 34.66425483 -173.32030648 34.65832502 -170.94335938 34.65039062 C-167.18803592 34.6398399 -163.43460845 34.6405747 -159.67944336 34.67895508 C-156.05998492 34.7121086 -152.44367049 34.69446574 -148.82421875 34.66796875 C-147.14885796 34.70179909 -147.14885796 34.70179909 -145.43965149 34.73631287 C-139.50183353 34.70687015 -139.50183353 34.70687015 -134.4433136 31.9443512 C-132.58747696 29.85326353 -132.58747696 29.85326353 -131.10342407 27.65991211 C-128.37032202 24.06149517 -124.93113226 22.71050012 -120.6171875 21.703125 C-115.25929806 21.18885515 -109.93364574 21.13635162 -104.5546875 21.140625 C-89.79874428 21.58194354 -89.79874428 21.58194354 -77.0546875 15.015625 C-76.48105469 14.49484375 -75.90742188 13.9740625 -75.31640625 13.4375 C-73.54428593 11.62871512 -71.96758011 9.72715133 -70.3671875 7.765625 C-53.18944909 -12.33271323 -21.21850847 -13.50888964 0 0 Z M-55.1484375 28.65234375 C-59.95018606 35.7572566 -61.23782335 42.40888269 -60.21484375 50.8984375 C-58.49946292 58.94839461 -54.16797646 65.73720434 -47.6171875 70.703125 C-40.74521532 74.97207742 -32.90488235 76.63266213 -24.90625 75.2265625 C-15.97824445 72.7867772 -10.10802515 68.04277634 -4.6171875 60.703125 C-0.52801152 53.4789141 0.39683011 45.37864518 -1.8046875 37.390625 C-4.79133476 28.93734658 -10.21695032 22.38359207 -18.30078125 18.37109375 C-32.4730809 12.80831871 -45.62132896 16.52472344 -55.1484375 28.65234375 Z " fill="#000000" transform="translate(286.6171875,8.296875)"/>
</svg>
