<?xml version="1.0" encoding="UTF-8"?>
<svg version="1.1" xmlns="http://www.w3.org/2000/svg" width="512" height="512">
<path d="M0 0 C1.28758209 0.00027191 2.57516418 0.00054382 3.90176392 0.00082397 C22.59208829 0.01899518 41.14685614 0.22128939 59.75 2.1875 C60.75208496 2.28933594 61.75416992 2.39117187 62.78662109 2.49609375 C92.71349785 5.64577966 131.4893835 10.90889453 151.93359375 35.8515625 C160.67363897 48.52061887 168.87181457 64.55294371 173.75 79.1875 C174.67337158 79.20731934 175.59674316 79.22713867 176.5480957 79.24755859 C179.97561174 79.32567739 183.40268798 79.41236997 186.82983398 79.50488281 C188.31282212 79.54315347 189.79590248 79.57800978 191.27905273 79.609375 C193.41163072 79.655068 195.54357491 79.71305338 197.67578125 79.7734375 C199.60031128 79.82056885 199.60031128 79.82056885 201.5637207 79.86865234 C204.75 80.1875 204.75 80.1875 207.75 82.1875 C209.08370041 86.18860123 208.97335475 89.87253403 209 94.0625 C209.0309375 95.26712891 209.0309375 95.26712891 209.0625 96.49609375 C209.09364082 101.22171381 208.85338918 104.37352171 205.75 108.1875 C204.265 109.1775 204.265 109.1775 202.75 110.1875 C203.75417969 110.6721875 204.75835937 111.156875 205.79296875 111.65625 C212.67278718 115.01207348 219.49096169 118.44293591 226.0625 122.375 C227.08988281 122.98730469 228.11726563 123.59960938 229.17578125 124.23046875 C236.77192568 130.0053828 236.83292999 140.57532382 238.05908203 149.41601562 C238.34895158 151.65061062 238.61820524 153.88637131 238.875 156.125 C238.95049072 156.77815186 239.02598145 157.43130371 239.10375977 158.10424805 C240.91761201 175.25915955 240.98693632 192.45650624 241 209.6875 C241.00300613 211.61941696 241.00300613 211.61941696 241.006073 213.59036255 C241.01368671 233.80601688 240.4173707 253.93843141 239.3125 274.125 C239.2451062 275.36217773 239.1777124 276.59935547 239.10827637 277.87402344 C238.91419183 281.36311029 238.71193911 284.85156273 238.50390625 288.33984375 C238.44342606 289.3704039 238.38294586 290.40096405 238.32063293 291.4627533 C238.26066635 292.41211258 238.20069977 293.36147186 238.13891602 294.33959961 C238.08784195 295.16012314 238.03676788 295.98064667 237.98414612 296.82603455 C237.73865092 299.30196039 237.23795006 301.74774972 236.75 304.1875 C232.79 304.1875 228.83 304.1875 224.75 304.1875 C224.8428125 306.476875 224.8428125 306.476875 224.9375 308.8125 C225.12452308 313.42573588 223.87711021 316.12955273 221.75 320.1875 C210.06733761 320.28008084 198.38476215 320.35120445 186.70180798 320.39474869 C181.27722934 320.41564521 175.85290123 320.44400068 170.4284668 320.48925781 C165.19595685 320.53264169 159.96368823 320.55662154 154.73101234 320.56700897 C152.73224397 320.57441375 150.73348917 320.58887316 148.73482323 320.61042023 C145.94035421 320.63935508 143.14688904 320.64346017 140.35229492 320.64160156 C139.52151428 320.65598267 138.69073364 320.67036377 137.83477783 320.68518066 C135.5275116 320.66851807 135.5275116 320.66851807 131.75 320.1875 C128.75 316.1875 128.75 316.1875 127.75 304.1875 C43.93 304.1875 -39.89 304.1875 -126.25 304.1875 C-126.25 306.4975 -126.25 308.8075 -126.25 311.1875 C-127.7393617 317.6768617 -127.7393617 317.6768617 -130.25 320.1875 C-133.06526193 320.39141973 -135.78255765 320.47066522 -138.59936523 320.4621582 C-139.46290619 320.46726913 -140.32644714 320.47238007 -141.21615601 320.47764587 C-144.08037176 320.49158459 -146.94434804 320.49058188 -149.80859375 320.48828125 C-151.79395132 320.49216588 -153.77930805 320.49650006 -155.7646637 320.50126648 C-159.93013195 320.50873794 -164.09551547 320.50843076 -168.26098633 320.50317383 C-173.60570983 320.49737849 -178.95008688 320.51430732 -184.29475307 320.5375185 C-188.39620501 320.55223244 -192.49757306 320.55313073 -196.59904671 320.55000877 C-198.56987253 320.55052318 -200.5407029 320.55578322 -202.51150322 320.56582069 C-205.26497951 320.5781223 -208.01777528 320.5714313 -210.77124023 320.55981445 C-211.58952805 320.56745819 -212.40781586 320.57510193 -213.25090027 320.58297729 C-218.83716428 320.53073873 -218.83716428 320.53073873 -220.94015598 318.7822752 C-224.29094866 314.70258251 -223.32309288 309.15781573 -223.25 304.1875 C-227.21 304.1875 -231.17 304.1875 -235.25 304.1875 C-251.07762162 163.42269497 -251.07762162 163.42269497 -231.25 127.1875 C-228.45703125 125.0703125 -228.45703125 125.0703125 -225.0625 123.3125 C-223.81618006 122.64886212 -222.5700963 121.98478053 -221.32421875 121.3203125 C-220.33881104 120.80839355 -220.33881104 120.80839355 -219.33349609 120.28613281 C-215.63473445 118.33576635 -212.01148423 116.25090982 -208.375 114.1875 C-207.00304486 113.41588258 -205.63068758 112.64497946 -204.2578125 111.875 C-203.26523438 111.318125 -202.27265625 110.76125 -201.25 110.1875 C-202.054375 109.589375 -202.85875 108.99125 -203.6875 108.375 C-206.25 106.1875 -206.25 106.1875 -207.25 103.1875 C-207.4740064 100.2121679 -207.43514195 97.2329273 -207.4375 94.25 C-207.44974609 93.43853516 -207.46199219 92.62707031 -207.47460938 91.79101562 C-207.47750977 90.61249023 -207.47750977 90.61249023 -207.48046875 89.41015625 C-207.48457764 88.69609619 -207.48868652 87.98203613 -207.49291992 87.24633789 C-207.20843265 84.83520107 -206.52197316 83.24743104 -205.25 81.1875 C-202.2971528 79.7110764 -199.56551017 79.96477061 -196.2734375 79.87109375 C-195.58819 79.85031265 -194.9029425 79.82953156 -194.19692993 79.80812073 C-192.00638931 79.74269815 -189.81572811 79.68377446 -187.625 79.625 C-186.1406125 79.58180782 -184.65623722 79.5381933 -183.171875 79.49414062 C-179.53137916 79.38702447 -175.89074749 79.28573638 -172.25 79.1875 C-171.77167725 78.17961426 -171.29335449 77.17172852 -170.80053711 76.13330078 C-168.99995296 72.3455257 -167.18735843 68.56359837 -165.37133789 64.78320312 C-164.59142793 63.155509 -163.81465431 61.5263078 -163.04125977 59.89550781 C-151.05293774 34.63246333 -137.18967756 21.36734003 -110.77734375 11.94921875 C-90.22605794 5.11202002 -67.7923523 2.60882454 -46.25 1.1875 C-45.05600586 1.10137451 -43.86201172 1.01524902 -42.63183594 0.92651367 C-28.4322744 -0.02861426 -14.22607467 -0.011263 0 0 Z M-56.25 36.1875 C-57.91772461 36.4043042 -57.91772461 36.4043042 -59.61914062 36.62548828 C-82.67111598 39.76230771 -109.93665624 43.96976065 -125.25 63.1875 C-135.23674587 76.75902866 -142.36077478 92.4828994 -148.25 108.1875 C-49.91 108.1875 48.43 108.1875 149.75 108.1875 C146.04689435 98.92973587 142.47284571 90.13773778 137.875 81.375 C137.39675781 80.42947266 136.91851562 79.48394531 136.42578125 78.50976562 C132.9022006 71.74616425 128.69623661 65.97911251 123.75 60.1875 C123.19183594 59.51992676 122.63367188 58.85235352 122.05859375 58.16455078 C107.84142016 41.65694016 77.87737484 38.80405873 57.75 36.1875 C56.59177734 36.03651855 55.43355469 35.88553711 54.24023438 35.72998047 C17.76111524 31.22116134 -19.80900254 31.4371919 -56.25 36.1875 Z M-205.25 145.1875 C-207.17191176 149.03132352 -206.43480197 153.77218171 -206.4375 158 C-206.44974609 158.99837891 -206.46199219 159.99675781 -206.47460938 161.02539062 C-206.47654297 161.99283203 -206.47847656 162.96027344 -206.48046875 163.95703125 C-206.48457764 164.83979736 -206.48868652 165.72256348 -206.49291992 166.63208008 C-206.21811191 169.52294986 -205.597006 171.61523394 -204.25 174.1875 C-199.28376602 176.25365248 -194.43575648 176.50237637 -189.125 176.4375 C-188.3009668 176.43218262 -187.47693359 176.42686523 -186.62792969 176.42138672 C-177.24405867 176.29100933 -167.87092561 175.7971425 -158.5 175.3125 C-157.32724518 175.25382751 -157.32724518 175.25382751 -156.13079834 175.19396973 C-145.4280428 174.64850284 -134.8646844 173.66528746 -124.25 172.1875 C-128.95638541 162.11090842 -144.30463112 156.16655331 -154.35839844 152.39697266 C-159.25383424 150.71779043 -164.21513463 149.3773285 -169.25 148.1875 C-169.94206543 148.02378906 -170.63413086 147.86007813 -171.34716797 147.69140625 C-182.67659442 145.12485235 -193.67001593 144.8442952 -205.25 145.1875 Z M167.75 149.1875 C167.04891113 149.36941895 166.34782227 149.55133789 165.62548828 149.73876953 C152.43293948 153.23947195 138.55315492 158.38434508 128.75 168.1875 C129.09786708 170.16286745 129.09786708 170.16286745 129.75 172.1875 C132.01247292 173.31873646 133.61708409 173.46059315 136.1328125 173.6875 C137.49442505 173.8105249 137.49442505 173.8105249 138.88354492 173.93603516 C139.8707251 174.01901855 140.85790527 174.10200195 141.875 174.1875 C142.89891846 174.27435059 143.92283691 174.36120117 144.9777832 174.45068359 C159.91724569 175.66349808 174.88804574 176.23853976 189.875 176.375 C190.68606201 176.38805176 191.49712402 176.40110352 192.33276367 176.41455078 C196.84040434 176.42124932 200.55779035 176.06006351 204.75 174.1875 C208.10176179 168.44162264 207.91059743 161.41623249 207.875 154.9375 C207.87886719 154.21820313 207.88273437 153.49890625 207.88671875 152.7578125 C207.95134589 148.84435799 207.95134589 148.84435799 206.75 145.1875 C193.14432407 144.6713732 180.9128637 145.67990089 167.75 149.1875 Z M-43.25 212.1875 C-44.17941406 212.35378906 -45.10882813 212.52007812 -46.06640625 212.69140625 C-83.79251355 218.54094164 -83.79251355 218.54094164 -116.25 236.1875 C-118.08262569 242.89567024 -118.08262569 242.89567024 -111.25 255.1875 C-37.33 255.1875 36.59 255.1875 112.75 255.1875 C118.10897908 243.57555244 118.10897908 243.57555244 117.75 236.1875 C114.19839519 231.47533141 109.81400712 229.47276063 104.5 227.3125 C103.6742749 226.97371826 102.8485498 226.63493652 101.99780273 226.28588867 C82.33859472 218.49159304 61.61488708 214.25061851 40.75 211.1875 C39.47463379 210.99986084 38.19926758 210.81222168 36.88525391 210.61889648 C25.30340571 209.02952755 13.80199152 208.82939651 2.125 208.875 C0.66966858 208.87773422 0.66966858 208.87773422 -0.81506348 208.88052368 C-15.17062871 208.92591151 -29.12237384 209.45658901 -43.25 212.1875 Z " fill="#000000" transform="translate(255.25,95.8125)"/>
</svg>
